<svg width="10" height="10" viewBox="0 0 10 10" fill="none" xmlns="http://www.w3.org/2000/svg">
<path d="M9.96558 5.11318C9.96214 4.74143 9.81227 4.38601 9.54845 4.12393L6.51539 1.08554C6.38293 0.953936 6.20374 0.880066 6.01696 0.880066C5.83017 0.880066 5.65098 0.953936 5.51852 1.08554C5.45225 1.15123 5.39965 1.22938 5.36376 1.31549C5.32787 1.40159 5.30939 1.49395 5.30939 1.58723C5.30939 1.68051 5.32787 1.77287 5.36376 1.85897C5.39965 1.94508 5.45225 2.02323 5.51852 2.08892L7.84456 4.40657H0.77451C0.587001 4.40657 0.407171 4.48102 0.274582 4.61353C0.141993 4.74605 0.0675049 4.92577 0.0675049 5.11318C0.0675049 5.30058 0.141993 5.48031 0.274582 5.61282C0.407171 5.74533 0.587001 5.81978 0.77451 5.81978H7.84456L5.51852 8.1445C5.38538 8.27662 5.31022 8.45618 5.30956 8.64369C5.30889 8.8312 5.38279 9.01129 5.51498 9.14434C5.64718 9.2774 5.82684 9.35252 6.01446 9.35319C6.20207 9.35385 6.38226 9.28 6.51539 9.14788L9.54845 6.10949C9.81399 5.84568 9.964 5.48738 9.96558 5.11318V5.11318Z" fill="#202727"/>
</svg>
