<svg width="196" height="200" viewBox="0 0 196 200" fill="none" xmlns="http://www.w3.org/2000/svg">
<path d="M127.387 34.5618C126.87 31.8019 125.758 27.5666 123.71 26.1325C120.607 23.9504 117.453 28.6293 113.699 29.2277C109.945 29.8261 115.886 17.6826 109.319 15.4953C102.752 13.3081 100.869 21.4278 98.6767 25.173C96.4842 28.9182 93.3609 23.6254 90.5426 24.5488C87.7244 25.4722 89.2912 30.4761 86.4781 31.1003C83.6651 31.7245 78.9697 27.9793 76.7772 30.1666C74.7087 32.23 74.5898 32.6324 71.6061 34.536L127.387 34.5618Z" fill="#00A868"/>
<path d="M41.7532 108.098C41.4119 106.293 40.6879 103.517 39.3435 102.579C37.275 101.15 35.2479 104.214 32.7865 104.642C30.3251 105.07 34.2189 97.0743 29.9166 95.6454C25.6142 94.2164 24.3835 99.5298 22.9511 101.98C21.5187 104.431 19.4658 100.948 17.6197 101.573C15.7736 102.197 16.8027 105.457 14.9566 105.865C13.1105 106.272 10.0389 103.801 8.60134 105.256C7.24135 106.613 7.16896 106.865 5.23497 108.114L41.7532 108.098Z" fill="#00A868"/>
<path d="M192.02 91.8848C190.986 86.3238 188.726 77.7707 184.6 74.8612C178.286 70.4557 171.977 79.8961 164.432 81.1548C156.888 82.4135 168.848 57.8686 155.6 53.4631C142.352 49.0576 138.561 65.4209 134.145 72.9731C129.729 80.5254 123.405 69.8521 117.717 71.7402C112.029 73.6283 115.193 83.7032 109.515 84.9619C103.838 86.2206 94.3641 78.6631 89.948 83.0532C85.7543 87.2368 85.5319 88.021 79.5748 91.8642L192.02 91.8848Z" fill="#00A868"/>
<path opacity="0.4" d="M127.387 34.5618C126.87 31.8019 125.758 27.5666 123.71 26.1325C120.607 23.9504 117.453 28.6293 113.699 29.2277C109.945 29.8261 115.886 17.6826 109.319 15.4953C102.752 13.3081 100.869 21.4278 98.6767 25.173C96.4842 28.9182 93.3609 23.6254 90.5426 24.5488C87.7244 25.4722 89.2912 30.4761 86.4781 31.1003C83.6651 31.7245 78.9697 27.9793 76.7772 30.1666C74.7087 32.23 74.5898 32.6324 71.6061 34.536L127.387 34.5618Z" fill="white"/>
<path opacity="0.4" d="M41.7532 108.098C41.4119 106.293 40.6879 103.517 39.3435 102.579C37.275 101.15 35.2479 104.214 32.7865 104.642C30.3251 105.07 34.2189 97.0743 29.9166 95.6454C25.6142 94.2164 24.3835 99.5298 22.9511 101.98C21.5187 104.431 19.4658 100.948 17.6197 101.573C15.7736 102.197 16.8027 105.457 14.9566 105.865C13.1105 106.272 10.0389 103.801 8.60134 105.256C7.24135 106.613 7.16896 106.865 5.23497 108.114L41.7532 108.098Z" fill="white"/>
<path opacity="0.4" d="M192.02 91.8848C190.986 86.3238 188.726 77.7707 184.6 74.8612C178.286 70.4557 171.977 79.8961 164.432 81.1548C156.888 82.4135 168.848 57.8686 155.6 53.4631C142.352 49.0576 138.561 65.4209 134.145 72.9731C129.729 80.5254 123.405 69.8521 117.717 71.7402C112.029 73.6283 115.193 83.7032 109.515 84.9619C103.838 86.2206 94.3641 78.6631 89.948 83.0532C85.7543 87.2368 85.5319 88.021 79.5748 91.8642L192.02 91.8848Z" fill="white"/>
<path d="M157.787 170.518C157.787 170.518 164.82 171.215 168.388 175.563C169.669 174.015 171.277 172.768 173.099 171.915C174.92 171.061 176.909 170.621 178.922 170.627C180.574 168.637 181.626 166.22 181.954 163.657C182.283 161.094 181.875 158.49 180.779 156.149C179.682 153.809 177.941 151.827 175.759 150.435C173.577 149.043 171.043 148.297 168.453 148.286C165.863 148.275 163.323 148.997 161.128 150.37C158.934 151.743 157.176 153.71 156.058 156.041C154.941 158.372 154.51 160.972 154.816 163.537C155.122 166.103 156.153 168.529 157.787 170.534V170.518Z" fill="#00A868"/>
<path opacity="0.3" d="M157.787 170.518C157.787 170.518 164.82 171.215 168.388 175.563C169.669 174.015 171.277 172.768 173.099 171.915C174.92 171.061 176.909 170.621 178.922 170.627C180.574 168.637 181.626 166.22 181.954 163.657C182.283 161.094 181.875 158.49 180.779 156.149C179.682 153.809 177.941 151.827 175.759 150.435C173.577 149.043 171.043 148.297 168.453 148.286C165.863 148.275 163.323 148.997 161.128 150.37C158.934 151.743 157.176 153.71 156.058 156.041C154.941 158.372 154.51 160.972 154.816 163.537C155.122 166.103 156.153 168.529 157.787 170.534V170.518Z" fill="white"/>
<path d="M168.156 149.244L167.918 184.426H169.107L168.156 149.244Z" fill="#4B5768"/>
<path d="M168.512 174.237C168.512 174.237 170.886 169.976 175.162 168.671C175.162 168.671 170.648 169.739 168.393 173.407L168.512 174.237Z" fill="#4B5768"/>
<path d="M168.512 162.156C168.512 162.156 170.886 157.895 175.162 156.59C175.162 156.59 170.648 157.658 168.393 161.326L168.512 162.156Z" fill="#4B5768"/>
<path d="M168.512 168.197C168.512 168.197 170.886 163.936 175.162 162.631C175.162 162.631 170.648 163.699 168.393 167.366L168.512 168.197Z" fill="#4B5768"/>
<path d="M168.16 165.236C168.16 165.236 165.87 160.975 161.743 159.67C161.743 159.67 166.097 160.737 168.274 164.405L168.16 165.236Z" fill="#4B5768"/>
<path d="M168.16 171.158C168.16 171.158 165.87 166.897 161.743 165.592C161.743 165.592 166.097 166.66 168.274 170.327L168.16 171.158Z" fill="#4B5768"/>
<path d="M131.647 162.455C131.647 162.455 141.064 163.389 145.842 169.213C145.842 169.213 150.884 162.465 159.943 162.6C162.157 159.935 163.567 156.698 164.008 153.266C164.449 149.833 163.904 146.346 162.435 143.21C160.967 140.075 158.636 137.42 155.714 135.555C152.792 133.69 149.398 132.692 145.929 132.676C142.46 132.66 139.058 133.628 136.119 135.466C133.18 137.304 130.825 139.938 129.328 143.06C127.831 146.182 127.253 149.663 127.663 153.1C128.073 156.536 129.453 159.786 131.642 162.471L131.647 162.455Z" fill="#00A868"/>
<path opacity="0.5" d="M131.647 162.455C131.647 162.455 141.064 163.389 145.842 169.213C145.842 169.213 150.884 162.465 159.943 162.6C162.157 159.935 163.567 156.698 164.008 153.266C164.449 149.833 163.904 146.346 162.435 143.21C160.967 140.075 158.636 137.42 155.714 135.555C152.792 133.69 149.398 132.692 145.929 132.676C142.46 132.66 139.058 133.628 136.119 135.466C133.18 137.304 130.825 139.938 129.328 143.06C127.831 146.182 127.253 149.663 127.663 153.1C128.073 156.536 129.453 159.786 131.642 162.471L131.647 162.455Z" fill="white"/>
<path d="M145.526 133.969L145.211 181.078H146.797L145.526 133.969Z" fill="#4B5768"/>
<path d="M146.007 167.438C146.007 167.438 149.188 161.728 154.912 159.984C154.912 159.984 148.867 161.408 145.847 166.324L146.007 167.438Z" fill="#4B5768"/>
<path d="M146.007 151.256C146.007 151.256 149.188 145.545 154.912 143.802C154.912 143.802 148.867 145.23 145.847 150.147L146.007 151.256Z" fill="#4B5768"/>
<path d="M146.007 159.35C146.007 159.35 149.188 153.639 154.912 151.89C154.912 151.89 148.867 153.319 145.847 158.235L146.007 159.35Z" fill="#4B5768"/>
<path d="M145.537 155.383C145.537 155.383 142.465 149.672 136.942 147.928C136.942 147.928 142.77 149.352 145.686 154.274L145.537 155.383Z" fill="#4B5768"/>
<path d="M145.537 163.312C145.537 163.312 142.465 157.601 136.942 155.857C136.942 155.857 142.77 157.286 145.686 162.202L145.537 163.312Z" fill="#4B5768"/>
<path d="M49.4116 162.208C49.4116 162.208 59.0556 163.157 63.9423 169.12C63.9423 169.12 69.1134 162.213 78.38 162.357C80.6488 159.63 82.0943 156.317 82.5479 152.802C83.0016 149.287 82.4448 145.716 80.9424 142.505C79.44 139.293 77.0538 136.574 74.0619 134.664C71.07 132.753 67.5956 131.73 64.0433 131.714C60.491 131.697 57.0071 132.688 53.9976 134.571C50.988 136.453 48.5766 139.151 47.0444 142.348C45.5122 145.545 44.9222 149.111 45.3431 152.629C45.764 156.148 47.1786 159.475 49.4219 162.223L49.4116 162.208Z" fill="#00A868"/>
<path opacity="0.3" d="M49.4116 162.208C49.4116 162.208 59.0556 163.157 63.9423 169.12C63.9423 169.12 69.1134 162.213 78.38 162.357C80.6488 159.63 82.0943 156.317 82.5479 152.802C83.0016 149.287 82.4448 145.716 80.9424 142.505C79.44 139.293 77.0538 136.574 74.0619 134.664C71.07 132.753 67.5956 131.73 64.0433 131.714C60.491 131.697 57.0071 132.688 53.9976 134.571C50.988 136.453 48.5766 139.151 47.0444 142.348C45.5122 145.545 44.9222 149.111 45.3431 152.629C45.764 156.148 47.1786 159.475 49.4219 162.223L49.4116 162.208Z" fill="white"/>
<path d="M63.6214 133.046L63.2959 181.269H64.9237L63.6214 133.046Z" fill="#4B5768"/>
<path d="M64.1132 167.304C64.1132 167.304 67.3659 161.465 73.2454 159.675C73.2454 159.675 67.0401 161.134 63.9684 166.169L64.1132 167.304Z" fill="#4B5768"/>
<path d="M64.1134 150.745C64.1134 150.745 67.366 144.9 73.2248 143.115C73.2248 143.115 67.0195 144.575 63.9479 149.605L64.1134 150.745Z" fill="#4B5768"/>
<path d="M64.1134 159.025C64.1134 159.025 67.366 153.18 73.2248 151.395C73.2248 151.395 67.0195 152.855 63.9479 157.89L64.1134 159.025Z" fill="#4B5768"/>
<path d="M63.6264 154.965C63.6264 154.965 60.4875 149.12 54.8355 147.335C54.8355 147.335 60.803 148.795 63.7867 153.83L63.6264 154.965Z" fill="#4B5768"/>
<path d="M63.6264 163.085C63.6264 163.085 60.4875 157.24 54.8355 155.45C54.8355 155.45 60.803 156.915 63.7867 161.945L63.6264 163.085Z" fill="#4B5768"/>
<path d="M16.715 171.669C16.715 171.669 24.1975 172.406 27.9931 177.034C27.9931 177.034 32.0007 171.674 39.1937 171.782C40.9531 169.666 42.0735 167.094 42.4246 164.367C42.7756 161.64 42.3429 158.869 41.1766 156.378C40.0103 153.887 38.1586 151.778 35.8371 150.296C33.5156 148.814 30.8198 148.02 28.0637 148.007C25.3076 147.995 22.6046 148.764 20.2696 150.224C17.9345 151.685 16.0634 153.777 14.8742 156.257C13.685 158.738 13.2267 161.504 13.5526 164.234C13.8785 166.965 14.9752 169.546 16.715 171.679V171.669Z" fill="#00A868"/>
<path opacity="0.5" d="M16.715 171.669C16.715 171.669 24.1975 172.406 27.9931 177.034C27.9931 177.034 32.0007 171.674 39.1937 171.782C40.9531 169.666 42.0735 167.094 42.4246 164.367C42.7756 161.64 42.3429 158.869 41.1766 156.378C40.0103 153.887 38.1586 151.778 35.8371 150.296C33.5156 148.814 30.8198 148.02 28.0637 148.007C25.3076 147.995 22.6046 148.764 20.2696 150.224C17.9345 151.685 16.0634 153.777 14.8742 156.257C13.685 158.738 13.2267 161.504 13.5526 164.234C13.8785 166.965 14.9752 169.546 16.715 171.679V171.669Z" fill="white"/>
<path d="M27.7443 149.038L27.4911 186.459H28.7521L27.7443 149.038Z" fill="#4B5768"/>
<path d="M28.1225 175.62C28.1225 175.62 30.6511 171.086 35.1965 169.698C35.1965 169.698 30.3977 170.833 27.9984 174.738L28.1225 175.62Z" fill="#4B5768"/>
<path d="M28.1225 162.77C28.1225 162.77 30.6511 158.235 35.1965 156.848C35.1965 156.848 30.3977 157.983 27.9984 161.888L28.1225 162.77Z" fill="#4B5768"/>
<path d="M28.1225 169.203C28.1225 169.203 30.6511 164.663 35.1965 163.281C35.1965 163.281 30.3977 164.416 27.9984 168.321L28.1225 169.203Z" fill="#4B5768"/>
<path d="M27.7393 166.046C27.7393 166.046 25.2986 161.511 20.9135 160.124C20.9135 160.124 25.5675 161.258 27.8583 165.164L27.7393 166.046Z" fill="#4B5768"/>
<path d="M27.7393 172.344C27.7393 172.344 25.2986 167.81 20.9135 166.422C20.9135 166.422 25.5675 167.557 27.8583 171.462L27.7393 172.344Z" fill="#4B5768"/>
<path d="M186.492 182.249L183.555 181.733C183.307 181.599 183.043 181.47 182.764 181.346L185.101 179.015L178.156 179.479L177.458 178.323L175.607 178.782L174.681 176.471L172.132 177.4L171.439 174.165L169.122 175.321L166.806 173.469L166.102 174.877L164.251 174.413L163.615 175.362L163.026 175.213L162.188 173.469L159.344 174.305L157.792 173.959L157.312 173.237H154.328L153.811 173.139L153.588 171.158L149.886 171.39L148.035 169.327L146.411 171.173L145.49 170.234L144.332 170.699L142.708 168.635C142.708 168.635 141.323 170.699 140.397 170.946C139.471 171.194 137.848 169.327 137.848 169.327L136.901 170.585L135.867 170.472L135.081 169.559L133.7 170.234L133.142 170.183L132.754 168.635L129.972 169.559L128.121 167.939L127.035 169.672L126.28 169.621L125.111 169.327L122.562 168.635L121.636 169.094L118.627 166.556V169.182H118.353L115.384 167.49L114.991 169.038H114.174L113.528 167.49L110.777 168.945H109.484L109.36 168.202L104.706 168.666L103.088 165.891L101.697 168.434L100.078 166.123L98.6611 168.945H97.1098L96.1273 168.181L95.8998 168.971L94.6018 169.007L92.8954 167.696L92.6627 168.847L90.8269 168.171L89.0067 169.203H88.6551L87.8173 167.949L85.0353 168.873L84.2234 169.414L82.7807 169.492L82.4911 168.181L79.2644 169.729L77.6665 169.832C77.1235 169.285 76.1721 168.434 75.5412 168.434C75.2497 168.457 74.9689 168.554 74.7255 168.716C74.482 168.877 74.284 169.098 74.1502 169.357L73.2452 168.62L72.1852 170.204L71.4922 170.265L70.7011 169.311L68.3844 170.467L67.4588 168.403L64.9094 170.467L64.444 168.847L61.8688 170.467L60.2451 168.62L58.58 171.524L58.0629 171.581L56.5116 170.234L55.1671 171.911L54.2467 172.025L53.0366 170.477L52.5712 171.632L50.5028 170.477L49.3445 172.54L47.0278 171.617L44.4164 173.33L41.2569 173.778L39.8814 172.793L38.7231 173.484L37.0993 172.793L36.6391 174.181L35.0154 173.717L33.795 174.934L33.5726 174.97L32.9108 173.469L30.6148 174.877L29.2289 173.03L27.3725 175.342L24.3629 175.569L21.5861 175.801L19.5176 176.724L17.5061 177.864L16.0427 177.647L14.7189 178.488L14.5793 178.524L13.0279 178.081L11.8696 178.772L9.80117 178.545L9.48056 180.129C8.96345 180.314 8.48771 180.505 8.00163 180.707C7.5414 180.66 7.07084 180.624 6.78643 180.624C6.50202 180.624 6.12453 181.14 5.75221 181.743C2.37549 183.487 0.307054 185.669 2.97533 188.011C6.48133 191.106 15.3859 189.745 19.4918 189.471C37.0735 188.305 50.3477 184.627 57.1735 185.226C63.9993 185.824 36.8977 199.995 66.2074 200C95.5171 200.005 155.667 196.616 164.458 195.79C173.249 194.965 155.734 191.746 158.253 187.887C160.771 184.029 181.217 187.299 184.656 186.381C186.937 185.772 186.208 184.251 185.473 183.286L186.492 182.249Z" fill="#00A868"/>
<path opacity="0.4" d="M186.492 182.249L183.555 181.733C183.307 181.599 183.043 181.47 182.764 181.346L185.101 179.015L178.156 179.479L177.458 178.323L175.607 178.782L174.681 176.471L172.132 177.4L171.439 174.165L169.122 175.321L166.806 173.469L166.102 174.877L164.251 174.413L163.615 175.362L163.026 175.213L162.188 173.469L159.344 174.305L157.792 173.959L157.312 173.237H154.328L153.811 173.139L153.588 171.158L149.886 171.39L148.035 169.327L146.411 171.173L145.49 170.234L144.332 170.699L142.708 168.635C142.708 168.635 141.323 170.699 140.397 170.946C139.471 171.194 137.848 169.327 137.848 169.327L136.901 170.585L135.867 170.472L135.081 169.559L133.7 170.234L133.142 170.183L132.754 168.635L129.972 169.559L128.121 167.939L127.035 169.672L126.28 169.621L125.111 169.327L122.562 168.635L121.636 169.094L118.627 166.556V169.182H118.353L115.384 167.49L114.991 169.038H114.174L113.528 167.49L110.777 168.945H109.484L109.36 168.202L104.706 168.666L103.088 165.891L101.697 168.434L100.078 166.123L98.6611 168.945H97.1098L96.1273 168.181L95.8998 168.971L94.6018 169.007L92.8954 167.696L92.6627 168.847L90.8269 168.171L89.0067 169.203H88.6551L87.8173 167.949L85.0353 168.873L84.2234 169.414L82.7807 169.492L82.4911 168.181L79.2644 169.729L77.6665 169.832C77.1235 169.285 76.1721 168.434 75.5412 168.434C75.2497 168.457 74.9689 168.554 74.7255 168.716C74.482 168.877 74.284 169.098 74.1502 169.357L73.2452 168.62L72.1852 170.204L71.4922 170.265L70.7011 169.311L68.3844 170.467L67.4588 168.403L64.9094 170.467L64.444 168.847L61.8688 170.467L60.2451 168.62L58.58 171.524L58.0629 171.581L56.5116 170.234L55.1671 171.911L54.2467 172.025L53.0366 170.477L52.5712 171.632L50.5028 170.477L49.3445 172.54L47.0278 171.617L44.4164 173.33L41.2569 173.778L39.8814 172.793L38.7231 173.484L37.0993 172.793L36.6391 174.181L35.0154 173.717L33.795 174.934L33.5726 174.97L32.9108 173.469L30.6148 174.877L29.2289 173.03L27.3725 175.342L24.3629 175.569L21.5861 175.801L19.5176 176.724L17.5061 177.864L16.0427 177.647L14.7189 178.488L14.5793 178.524L13.0279 178.081L11.8696 178.772L9.80117 178.545L9.48056 180.129C8.96345 180.314 8.48771 180.505 8.00163 180.707C7.5414 180.66 7.07084 180.624 6.78643 180.624C6.50202 180.624 6.12453 181.14 5.75221 181.743C2.37549 183.487 0.307054 185.669 2.97533 188.011C6.48133 191.106 15.3859 189.745 19.4918 189.471C37.0735 188.305 50.3477 184.627 57.1735 185.226C63.9993 185.824 36.8977 199.995 66.2074 200C95.5171 200.005 155.667 196.616 164.458 195.79C173.249 194.965 155.734 191.746 158.253 187.887C160.771 184.029 181.217 187.299 184.656 186.381C186.937 185.772 186.208 184.251 185.473 183.286L186.492 182.249Z" fill="white"/>
<path d="M113.865 112.282C113.865 112.282 112.37 116.182 111.222 118.473C110.074 120.763 108.12 130.523 107.654 135.341C107.189 140.16 106.506 146.242 106.506 146.242C106.506 146.242 103.859 151.06 102.597 152.896C101.335 154.733 99.4944 155.764 100.529 157.023C101.563 158.282 104.097 156.564 105.938 155.532C107.779 154.501 108.006 152.664 109.04 152.205C110.074 151.746 112.262 152.086 111.915 149.11C111.569 146.133 109.961 144.637 110.307 143.832C110.654 143.028 113.063 135.114 114.098 133.051C115.132 130.987 117.433 128.573 118.353 125.364C118.931 123.077 119.202 120.723 119.16 118.364C119.16 118.364 121.342 114.005 121.689 113.773C122.035 113.541 115.132 113.2 113.865 112.282Z" fill="white"/>
<mask id="mask0_216_218" style="mask-type:luminance" maskUnits="userSpaceOnUse" x="100" y="112" width="22" height="46">
<path d="M113.865 112.282C113.865 112.282 112.37 116.182 111.222 118.473C110.074 120.763 108.12 130.523 107.654 135.341C107.189 140.16 106.506 146.242 106.506 146.242C106.506 146.242 103.859 151.06 102.597 152.896C101.335 154.733 99.4944 155.764 100.529 157.023C101.563 158.282 104.097 156.564 105.938 155.532C107.779 154.501 108.006 152.664 109.04 152.205C110.074 151.746 112.262 152.086 111.915 149.11C111.569 146.133 109.961 144.637 110.307 143.832C110.654 143.028 113.063 135.114 114.098 133.051C115.132 130.987 117.433 128.573 118.353 125.364C118.931 123.077 119.202 120.723 119.16 118.364C119.16 118.364 121.342 114.005 121.689 113.773C122.035 113.541 115.132 113.2 113.865 112.282Z" fill="white"/>
</mask>
<g mask="url(#mask0_216_218)">
<path d="M113.865 112.282C113.865 112.282 112.37 116.182 111.222 118.473C110.074 120.763 108.12 130.523 107.654 135.341C107.189 140.16 106.506 146.242 106.506 146.242C106.506 146.242 103.859 151.06 102.597 152.896C101.335 154.733 99.4944 155.764 100.529 157.023C101.563 158.282 104.097 156.564 105.938 155.532C107.779 154.501 108.006 152.664 109.04 152.205C110.074 151.746 112.262 152.086 111.915 149.11C111.569 146.133 109.961 144.637 110.307 143.832C110.654 143.028 113.063 135.114 114.098 133.051C115.132 130.987 117.433 128.573 118.353 125.364C118.931 123.077 119.202 120.723 119.16 118.364C119.16 118.364 121.342 114.005 121.689 113.773C122.035 113.541 115.132 113.2 113.865 112.282Z" fill="#E4E7EB" stroke="#4B5768" stroke-linecap="round" stroke-linejoin="round"/>
<path opacity="0.25" d="M112.215 116.321C113.218 116.837 115.141 117.786 116.32 117.786H117.97C117.97 117.786 119.252 120.711 117.055 125.648C114.857 130.585 111.005 136.43 110.089 140.268C109.572 142.409 108.217 149.084 107.111 154.578C107.948 153.618 108.279 152.551 109.034 152.215C110.069 151.756 112.256 152.097 111.91 149.12C111.563 146.144 109.955 144.648 110.301 143.843C110.648 143.038 113.063 135.114 114.097 133.051C115.131 130.987 117.432 128.573 118.353 125.364C118.93 123.077 119.201 120.723 119.159 118.364C119.159 118.364 121.342 114.005 121.688 113.773C122.035 113.541 115.131 113.2 113.864 112.282C113.864 112.282 113.063 114.325 112.215 116.321Z" fill="#191D23"/>
</g>
<path d="M113.865 112.282C113.865 112.282 112.37 116.182 111.222 118.473C110.074 120.763 108.12 130.523 107.654 135.341C107.189 140.16 106.506 146.242 106.506 146.242C106.506 146.242 103.859 151.06 102.597 152.896C101.335 154.733 99.4944 155.764 100.529 157.023C101.563 158.282 104.097 156.564 105.938 155.532C107.779 154.501 108.006 152.664 109.04 152.205C110.074 151.746 112.262 152.086 111.915 149.11C111.569 146.133 109.961 144.637 110.307 143.832C110.654 143.028 113.063 135.114 114.098 133.051C115.132 130.987 117.433 128.573 118.353 125.364C118.931 123.077 119.202 120.723 119.16 118.364C119.16 118.364 121.342 114.005 121.689 113.773C122.035 113.541 115.132 113.2 113.865 112.282Z" stroke="#4B5768" stroke-linecap="round" stroke-linejoin="round"/>
<path d="M100.523 157.034C101.557 158.297 104.091 156.574 105.931 155.543C107.772 154.511 108 152.675 109.034 152.215C110.068 151.756 112.256 152.097 111.909 149.12C111.604 146.469 110.301 144.993 110.255 144.137C110.015 144.98 109.507 145.723 108.807 146.252C107.312 147.516 106.505 146.252 106.505 146.252C106.505 146.252 103.858 151.07 102.596 152.907C101.334 154.743 99.4883 155.79 100.523 157.034Z" fill="#4B5768" stroke="#4B5768" stroke-linecap="round" stroke-linejoin="round"/>
<path d="M111.915 149.146C111.356 149.635 110.736 150.05 110.069 150.379C108.114 151.297 107.654 153.015 104.898 155.197C104.269 155.748 103.525 156.151 102.719 156.376C101.914 156.601 101.068 156.642 100.244 156.497C100.296 156.687 100.389 156.863 100.518 157.013C101.552 158.277 104.086 156.554 105.927 155.522C107.768 154.49 107.995 152.654 109.03 152.195C110.064 151.736 112.236 152.092 111.915 149.146Z" fill="white" stroke="#4B5768" stroke-linecap="round" stroke-linejoin="round"/>
<path d="M143.541 112.855L146.189 116.873C146.189 116.873 147.337 122.151 149.064 125.592C150.791 129.032 155.047 134.877 157.116 137.41C159.184 139.943 159.877 144.869 159.877 144.869C159.877 144.869 158.843 147.052 159.53 148.656C160.218 150.26 162.178 151.411 162.525 152.902C162.871 154.392 164.939 157.952 166.548 157.72C168.156 157.488 169.195 155.429 167.928 152.442C166.661 149.456 164.247 147.165 163.559 144.065C162.871 140.964 160.684 128.114 158.843 124.101C157.798 121.787 156.567 119.561 155.161 117.446L153.434 110.559C153.434 110.559 146.996 114.005 143.541 112.855Z" fill="white"/>
<mask id="mask1_216_218" style="mask-type:luminance" maskUnits="userSpaceOnUse" x="143" y="110" width="26" height="48">
<path d="M143.541 112.855L146.189 116.873C146.189 116.873 147.337 122.151 149.064 125.592C150.791 129.032 155.047 134.877 157.116 137.41C159.184 139.943 159.877 144.869 159.877 144.869C159.877 144.869 158.843 147.052 159.53 148.656C160.218 150.26 162.178 151.411 162.525 152.902C162.871 154.392 164.939 157.952 166.548 157.72C168.156 157.488 169.195 155.429 167.928 152.442C166.661 149.456 164.247 147.165 163.559 144.065C162.871 140.964 160.684 128.114 158.843 124.101C157.798 121.787 156.567 119.561 155.161 117.446L153.434 110.559C153.434 110.559 146.996 114.005 143.541 112.855Z" fill="white"/>
</mask>
<g mask="url(#mask1_216_218)">
<path d="M143.541 112.855L146.189 116.873C146.189 116.873 147.337 122.151 149.064 125.592C150.791 129.032 155.047 134.877 157.116 137.41C159.184 139.943 159.877 144.869 159.877 144.869C159.877 144.869 158.843 147.052 159.53 148.656C160.218 150.26 162.178 151.411 162.525 152.902C162.871 154.392 164.939 157.952 166.548 157.72C168.156 157.488 169.195 155.429 167.928 152.442C166.661 149.456 164.247 147.165 163.559 144.065C162.871 140.964 160.684 128.114 158.843 124.101C157.798 121.787 156.567 119.561 155.161 117.446L153.434 110.559C153.434 110.559 146.996 114.005 143.541 112.855Z" fill="#E4E7EB" stroke="#4B5768" stroke-linecap="round" stroke-linejoin="round"/>
<path opacity="0.25" d="M158.843 124.101C157.798 121.787 156.567 119.561 155.161 117.446L153.434 110.559C153.434 110.559 146.996 114.005 143.541 112.855L146.174 116.848C146.623 116.848 147.12 116.873 147.652 116.873C149.102 116.836 150.532 116.526 151.867 115.96C151.867 115.96 156.262 122.904 158.46 128.754C159.986 132.814 161.956 138.978 163.259 142.62C162.364 138.106 160.466 127.65 158.843 124.101Z" fill="#191D23"/>
</g>
<path d="M143.541 112.855L146.189 116.873C146.189 116.873 147.337 122.151 149.064 125.592C150.791 129.032 155.047 134.877 157.116 137.41C159.184 139.943 159.877 144.869 159.877 144.869C159.877 144.869 158.843 147.052 159.53 148.656C160.218 150.26 162.178 151.411 162.525 152.902C162.871 154.392 164.939 157.952 166.548 157.72C168.156 157.488 169.195 155.429 167.928 152.442C166.661 149.456 164.247 147.165 163.559 144.065C162.871 140.964 160.684 128.114 158.843 124.101C157.798 121.787 156.567 119.561 155.161 117.446L153.434 110.559C153.434 110.559 146.996 114.005 143.541 112.855Z" stroke="#4B5768" stroke-linecap="round" stroke-linejoin="round"/>
<path d="M167.927 152.442C166.836 149.863 164.892 147.8 163.935 145.308C163.768 145.799 163.48 146.241 163.098 146.593C161.831 147.624 159.876 144.87 159.876 144.87C159.876 144.87 158.842 147.052 159.53 148.656C160.217 150.26 162.177 151.411 162.524 152.902C162.87 154.392 164.939 157.952 166.547 157.72C168.155 157.488 169.194 155.429 167.927 152.442Z" fill="#4B5768" stroke="#4B5768" stroke-linecap="round" stroke-linejoin="round"/>
<path d="M162.524 152.901C162.669 153.44 162.878 153.959 163.145 154.449C163.082 154.319 163.029 154.184 162.984 154.047C162.405 152.21 162.064 149.92 160.797 148.764C160.178 148.156 159.687 147.429 159.354 146.628C159.227 147.306 159.287 148.005 159.53 148.651C160.223 150.265 162.188 151.411 162.524 152.901Z" fill="white" stroke="#4B5768" stroke-linecap="round" stroke-linejoin="round"/>
<path d="M168.393 153.918C168.253 154.882 167.969 155.981 167.358 156.574C166.288 157.642 164.313 156.409 163.382 154.888C164.214 156.363 165.487 157.874 166.552 157.72C167.876 157.534 168.812 156.09 168.393 153.918Z" fill="white" stroke="#4B5768" stroke-linecap="round" stroke-linejoin="round"/>
<path d="M148.03 76.8267C148.03 76.8267 148.257 77.0537 147.223 77.7398C146.189 78.4259 143.66 79.0036 144.234 79.9219C144.808 80.8401 145.382 81.2993 144.922 81.6449C144.461 81.9905 143.774 81.9905 143.2 82.4445C142.626 82.8984 140.899 77.3993 140.899 77.3993C140.899 77.3993 145.154 75.3152 148.03 76.8267Z" fill="white"/>
<mask id="mask2_216_218" style="mask-type:luminance" maskUnits="userSpaceOnUse" x="140" y="76" width="9" height="7">
<path d="M148.03 76.8267C148.03 76.8267 148.257 77.0537 147.223 77.7398C146.189 78.4259 143.66 79.0036 144.234 79.9219C144.808 80.8401 145.382 81.2993 144.922 81.6449C144.461 81.9905 143.774 81.9905 143.2 82.4445C142.626 82.8984 140.899 77.3993 140.899 77.3993C140.899 77.3993 145.154 75.3152 148.03 76.8267Z" fill="white"/>
</mask>
<g mask="url(#mask2_216_218)">
<path d="M148.03 76.8267C148.03 76.8267 148.257 77.0537 147.223 77.7398C146.189 78.4259 143.66 79.0036 144.234 79.9219C144.808 80.8401 145.382 81.2993 144.922 81.6449C144.461 81.9905 143.774 81.9905 143.2 82.4445C142.626 82.8984 140.899 77.3993 140.899 77.3993C140.899 77.3993 145.154 75.3152 148.03 76.8267Z" fill="#00A868"/>
<path opacity="0.25" d="M148.03 76.8267C148.03 76.8267 148.257 77.0537 147.223 77.7398C146.189 78.4259 143.66 79.0036 144.234 79.9219C144.808 80.8401 145.382 81.2993 144.922 81.6449C144.461 81.9905 143.774 81.9905 143.2 82.4445C142.626 82.8984 140.899 77.3993 140.899 77.3993C140.899 77.3993 145.154 75.3152 148.03 76.8267Z" fill="#191D23"/>
</g>
<path d="M148.03 76.8267C148.03 76.8267 148.257 77.0537 147.223 77.7398C146.189 78.4259 143.66 79.0036 144.234 79.9219C144.808 80.8401 145.382 81.2993 144.922 81.6449C144.461 81.9905 143.774 81.9905 143.2 82.4445C142.626 82.8984 140.899 77.3993 140.899 77.3993C140.899 77.3993 145.154 75.3152 148.03 76.8267Z" stroke="#4B5768" stroke-linecap="round" stroke-linejoin="round"/>
<path d="M121.688 80.6131L120.653 86.5765C120.653 86.5765 116.398 95.759 114.903 100.464C113.409 105.168 111.221 113.427 111.221 113.427C111.221 113.427 112.83 114.691 117.665 115.491C122.5 116.29 128.576 113.2 128.576 113.2C128.576 113.2 130.417 103.332 130.991 102.068C131.564 100.804 133.173 97.4768 133.173 97.4768H134.672L138.582 112.628C138.582 112.628 142.145 113.546 144.218 113.886C146.292 114.227 149.389 114.459 152.156 112.509C153.949 111.15 155.438 109.432 156.525 107.464C156.525 107.464 152.156 97.1466 150.196 92.8907C148.236 88.6348 143.758 81.4127 143.758 81.4127L142.377 76.708L121.688 80.6131Z" fill="#4B5768" stroke="#4B5768" stroke-linecap="round" stroke-linejoin="round"/>
<path d="M121.921 88.8722L126.75 93.4634" stroke="white" stroke-linecap="round" stroke-linejoin="round"/>
<path d="M127.79 94.9441L128.591 95.527" stroke="white" stroke-linecap="round" stroke-linejoin="round"/>
<path d="M122.035 90.7085L126.875 94.268" stroke="white" stroke-linecap="round" stroke-linejoin="round"/>
<path d="M126.125 112.973C126.813 112.719 127.483 112.419 128.132 112.076" stroke="white" stroke-linecap="round" stroke-linejoin="round"/>
<path d="M112.488 112.509C115.938 113.941 119.726 114.354 123.404 113.701" stroke="white" stroke-linecap="round" stroke-linejoin="round"/>
<path d="M139.058 111.477C139.058 111.477 146.996 116.528 155.605 106.886" stroke="white" stroke-linecap="round" stroke-linejoin="round"/>
<path d="M145.154 85.5449L142.853 89.904" stroke="white" stroke-linecap="round" stroke-linejoin="round"/>
<path d="M126.404 84.0539C130.676 84.4845 134.982 83.688 138.815 81.7583" stroke="white" stroke-linecap="round" stroke-linejoin="round"/>
<path d="M143.138 79.2564L142.393 76.708L121.709 80.6131L121.522 81.6758C124.906 82.662 128.467 82.8858 131.947 82.331C135.779 81.717 139.531 80.686 143.138 79.2564Z" fill="white"/>
<mask id="mask3_216_218" style="mask-type:luminance" maskUnits="userSpaceOnUse" x="121" y="76" width="23" height="7">
<path d="M143.138 79.2564L142.393 76.708L121.709 80.6131L121.522 81.6758C124.906 82.662 128.467 82.8858 131.947 82.331C135.779 81.717 139.531 80.686 143.138 79.2564Z" fill="white"/>
</mask>
<g mask="url(#mask3_216_218)">
<path d="M143.138 79.2564L142.393 76.708L121.709 80.6131L121.522 81.6758C124.906 82.662 128.467 82.8858 131.947 82.331C135.779 81.717 139.531 80.686 143.138 79.2564Z" fill="#999DA3" stroke="#4B5768" stroke-linecap="round" stroke-linejoin="round"/>
</g>
<path d="M143.138 79.2564L142.393 76.708L121.709 80.6131L121.522 81.6758C124.906 82.662 128.467 82.8858 131.947 82.331C135.779 81.717 139.531 80.686 143.138 79.2564Z" stroke="#4B5768" stroke-linecap="round" stroke-linejoin="round"/>
<path d="M154.503 35.1704C153.371 31.0794 151.872 27.0981 150.025 23.2745C148.624 20.298 147.233 16.5683 145.071 14.056C143.691 12.4516 141.157 11.1878 140.583 11.4199C140.009 11.6521 137.48 12.6786 137.48 14.056C137.48 15.4334 138.401 15.4334 138.401 15.4334C138.401 15.4334 138.168 17.1563 138.861 17.8425C139.554 18.5286 143.117 18.3016 143.117 18.3016C143.753 19.235 144.282 20.2369 144.694 21.2884C145.382 23.5789 145.992 24.038 146.452 28.1701C146.907 31.4579 147.56 34.7155 148.407 37.9251C147.963 38.1972 147.573 38.5467 147.254 38.9569C146.566 39.7616 142.196 44.1155 142.196 44.1155C140.932 44.7134 139.624 45.2119 138.282 45.6064C137.105 45.9717 135.965 46.4484 134.879 47.0302C134.171 46.9476 133.457 46.8703 133.075 46.8703C132.268 46.8703 126.637 47.902 126.637 47.902C125.335 47.1297 123.946 46.5133 122.5 46.0655C121.158 45.671 119.849 45.1726 118.585 44.5746C118.585 44.5746 114.216 40.2156 113.528 39.416C113.209 39.0058 112.818 38.6563 112.375 38.3843C113.222 35.1746 113.874 31.917 114.329 28.6292C114.702 25.2967 115.663 21.5103 117.67 18.7607C117.67 18.7607 121.233 18.9928 121.926 18.3016C122.619 17.6103 122.381 15.8925 122.381 15.8925C122.381 15.8925 123.301 15.8925 123.301 14.5151C123.301 13.1378 120.772 12.106 120.198 11.879C119.625 11.6521 117.096 12.9108 115.71 14.5151C114.324 16.1195 114.448 17.729 113.068 20.0246C111.687 22.3202 106.862 33.4371 106.278 35.6295C105.694 37.822 105.016 39.0704 105.13 40.1072C105.244 41.1441 110.766 47.1024 112.147 48.7119C113.528 50.3214 118.818 55.8257 118.818 55.8257C118.818 55.8257 120.772 65.4621 121.346 68.9081C121.92 72.354 121.579 81.8718 121.579 81.8718C121.579 81.8718 127.903 80.4944 133.886 79.8083C139.869 79.1222 146.421 76.8266 147.228 76.8266H148.034C148.034 76.8266 143.546 71.3172 143.546 70.5124C143.546 69.8727 143.696 58.1832 143.753 53.4888C145.423 51.7349 147.786 49.2381 148.639 48.2425C150.02 46.633 155.543 40.6695 155.657 39.6378C155.77 38.6061 155.077 37.3525 154.503 35.1704Z" fill="white"/>
<mask id="mask4_216_218" style="mask-type:luminance" maskUnits="userSpaceOnUse" x="105" y="11" width="51" height="71">
<path d="M154.503 35.1704C153.371 31.0794 151.872 27.0981 150.025 23.2745C148.624 20.298 147.233 16.5683 145.071 14.056C143.691 12.4516 141.157 11.1878 140.583 11.4199C140.009 11.6521 137.48 12.6786 137.48 14.056C137.48 15.4334 138.401 15.4334 138.401 15.4334C138.401 15.4334 138.168 17.1563 138.861 17.8425C139.554 18.5286 143.117 18.3016 143.117 18.3016C143.753 19.235 144.282 20.2369 144.694 21.2884C145.382 23.5789 145.992 24.038 146.452 28.1701C146.907 31.4579 147.56 34.7155 148.407 37.9251C147.963 38.1972 147.573 38.5467 147.254 38.9569C146.566 39.7616 142.196 44.1155 142.196 44.1155C140.932 44.7134 139.624 45.2119 138.282 45.6064C137.105 45.9717 135.965 46.4484 134.879 47.0302C134.171 46.9476 133.457 46.8703 133.075 46.8703C132.268 46.8703 126.637 47.902 126.637 47.902C125.335 47.1297 123.946 46.5133 122.5 46.0655C121.158 45.671 119.849 45.1726 118.585 44.5746C118.585 44.5746 114.216 40.2156 113.528 39.416C113.209 39.0058 112.818 38.6563 112.375 38.3843C113.222 35.1746 113.874 31.917 114.329 28.6292C114.702 25.2967 115.663 21.5103 117.67 18.7607C117.67 18.7607 121.233 18.9928 121.926 18.3016C122.619 17.6103 122.381 15.8925 122.381 15.8925C122.381 15.8925 123.301 15.8925 123.301 14.5151C123.301 13.1378 120.772 12.106 120.198 11.879C119.625 11.6521 117.096 12.9108 115.71 14.5151C114.324 16.1195 114.448 17.729 113.068 20.0246C111.687 22.3202 106.862 33.4371 106.278 35.6295C105.694 37.822 105.016 39.0704 105.13 40.1072C105.244 41.1441 110.766 47.1024 112.147 48.7119C113.528 50.3214 118.818 55.8257 118.818 55.8257C118.818 55.8257 120.772 65.4621 121.346 68.9081C121.92 72.354 121.579 81.8718 121.579 81.8718C121.579 81.8718 127.903 80.4944 133.886 79.8083C139.869 79.1222 146.421 76.8266 147.228 76.8266H148.034C148.034 76.8266 143.546 71.3172 143.546 70.5124C143.546 69.8727 143.696 58.1832 143.753 53.4888C145.423 51.7349 147.786 49.2381 148.639 48.2425C150.02 46.633 155.543 40.6695 155.657 39.6378C155.77 38.6061 155.077 37.3525 154.503 35.1704Z" fill="white"/>
</mask>
<g mask="url(#mask4_216_218)">
<path d="M154.503 35.1704C153.371 31.0794 151.872 27.0981 150.025 23.2745C148.624 20.298 147.233 16.5683 145.071 14.056C143.691 12.4516 141.157 11.1878 140.583 11.4199C140.009 11.6521 137.48 12.6786 137.48 14.056C137.48 15.4334 138.401 15.4334 138.401 15.4334C138.401 15.4334 138.168 17.1563 138.861 17.8425C139.554 18.5286 143.117 18.3016 143.117 18.3016C143.753 19.235 144.282 20.2369 144.694 21.2884C145.382 23.5789 145.992 24.038 146.452 28.1701C146.907 31.4579 147.56 34.7155 148.407 37.9251C147.963 38.1972 147.573 38.5467 147.254 38.9569C146.566 39.7616 142.196 44.1155 142.196 44.1155C140.932 44.7134 139.624 45.2119 138.282 45.6064C137.105 45.9717 135.965 46.4484 134.879 47.0302C134.171 46.9476 133.457 46.8703 133.075 46.8703C132.268 46.8703 126.637 47.902 126.637 47.902C125.335 47.1297 123.946 46.5133 122.5 46.0655C121.158 45.671 119.849 45.1726 118.585 44.5746C118.585 44.5746 114.216 40.2156 113.528 39.416C113.209 39.0058 112.818 38.6563 112.375 38.3843C113.222 35.1746 113.874 31.917 114.329 28.6292C114.702 25.2967 115.663 21.5103 117.67 18.7607C117.67 18.7607 121.233 18.9928 121.926 18.3016C122.619 17.6103 122.381 15.8925 122.381 15.8925C122.381 15.8925 123.301 15.8925 123.301 14.5151C123.301 13.1378 120.772 12.106 120.198 11.879C119.625 11.6521 117.096 12.9108 115.71 14.5151C114.324 16.1195 114.448 17.729 113.068 20.0246C111.687 22.3202 106.862 33.4371 106.278 35.6295C105.694 37.822 105.016 39.0704 105.13 40.1072C105.244 41.1441 110.766 47.1024 112.147 48.7119C113.528 50.3214 118.818 55.8257 118.818 55.8257C118.818 55.8257 120.772 65.4621 121.346 68.9081C121.92 72.354 121.579 81.8718 121.579 81.8718C121.579 81.8718 127.903 80.4944 133.886 79.8083C139.869 79.1222 146.421 76.8266 147.228 76.8266H148.034C148.034 76.8266 143.546 71.3172 143.546 70.5124C143.546 69.8727 143.696 58.1832 143.753 53.4888C145.423 51.7349 147.786 49.2381 148.639 48.2425C150.02 46.633 155.543 40.6695 155.657 39.6378C155.77 38.6061 155.077 37.3525 154.503 35.1704Z" fill="#E4E7EB" stroke="#4B5768" stroke-linecap="round" stroke-linejoin="round"/>
<path opacity="0.25" d="M122.035 71.1883C121.688 69.5788 121.228 60.2829 120.654 57.3012C120.08 54.3195 118.699 53.1743 117.892 51.9104C117.086 50.6465 114.79 48.8152 111.91 45.72C109.029 42.6248 106.392 39.9887 106.857 37.6931C107.173 36.0991 110.275 27.123 112.137 21.8044C110.208 25.7508 106.759 33.8087 106.278 35.6297C105.704 37.8118 105.016 39.0705 105.13 40.1074C105.244 41.1443 110.767 47.1025 112.147 48.712C113.528 50.3215 118.818 55.8258 118.818 55.8258C118.818 55.8258 120.773 65.4622 121.347 68.9082C121.578 70.7527 121.687 72.6104 121.673 74.4692C121.962 72.999 122.148 71.7042 122.035 71.1883Z" fill="#191D23"/>
<path opacity="0.25" d="M153.915 39.0704C153.915 40.7934 145.517 46.9889 143.572 50.2028C141.628 53.4166 142.192 61.3352 142.192 64.5439C142.229 65.8467 142.191 67.1506 142.078 68.449L143.578 70.2648C143.578 68.4283 143.722 57.884 143.779 53.4992C145.45 51.7452 147.813 49.2484 148.666 48.2528C150.047 46.6433 155.569 40.6799 155.683 39.6482C155.797 38.6164 155.109 37.3526 154.535 35.1704C153.402 31.0794 151.904 27.0981 150.057 23.2746C148.656 20.298 147.265 16.5683 145.103 14.056C145.103 14.056 148.749 22.8928 150.936 28.7427C153.123 34.5927 153.915 37.3526 153.915 39.0704Z" fill="#191D23"/>
</g>
<path d="M154.503 35.1704C153.371 31.0794 151.872 27.0981 150.025 23.2745C148.624 20.298 147.233 16.5683 145.071 14.056C143.691 12.4516 141.157 11.1878 140.583 11.4199C140.009 11.6521 137.48 12.6786 137.48 14.056C137.48 15.4334 138.401 15.4334 138.401 15.4334C138.401 15.4334 138.168 17.1563 138.861 17.8425C139.554 18.5286 143.117 18.3016 143.117 18.3016C143.753 19.235 144.282 20.2369 144.694 21.2884C145.382 23.5789 145.992 24.038 146.452 28.1701C146.907 31.4579 147.56 34.7155 148.407 37.9251C147.963 38.1972 147.573 38.5467 147.254 38.9569C146.566 39.7616 142.196 44.1155 142.196 44.1155C140.932 44.7134 139.624 45.2119 138.282 45.6064C137.105 45.9717 135.965 46.4484 134.879 47.0302C134.171 46.9476 133.457 46.8703 133.075 46.8703C132.268 46.8703 126.637 47.902 126.637 47.902C125.335 47.1297 123.946 46.5133 122.5 46.0655C121.158 45.671 119.849 45.1726 118.585 44.5746C118.585 44.5746 114.216 40.2156 113.528 39.416C113.209 39.0058 112.818 38.6563 112.375 38.3843C113.222 35.1746 113.874 31.917 114.329 28.6292C114.702 25.2967 115.663 21.5103 117.67 18.7607C117.67 18.7607 121.233 18.9928 121.926 18.3016C122.619 17.6103 122.381 15.8925 122.381 15.8925C122.381 15.8925 123.301 15.8925 123.301 14.5151C123.301 13.1378 120.772 12.106 120.198 11.879C119.625 11.6521 117.096 12.9108 115.71 14.5151C114.324 16.1195 114.448 17.729 113.068 20.0246C111.687 22.3202 106.862 33.4371 106.278 35.6295C105.694 37.822 105.016 39.0704 105.13 40.1072C105.244 41.1441 110.766 47.1024 112.147 48.7119C113.528 50.3214 118.818 55.8257 118.818 55.8257C118.818 55.8257 120.772 65.4621 121.346 68.9081C121.92 72.354 121.579 81.8718 121.579 81.8718C121.579 81.8718 127.903 80.4944 133.886 79.8083C139.869 79.1222 146.421 76.8266 147.228 76.8266H148.034C148.034 76.8266 143.546 71.3172 143.546 70.5124C143.546 69.8727 143.696 58.1832 143.753 53.4888C145.423 51.7349 147.786 49.2381 148.639 48.2425C150.02 46.633 155.543 40.6695 155.657 39.6378C155.77 38.6061 155.077 37.3525 154.503 35.1704Z" stroke="#4B5768" stroke-linecap="round" stroke-linejoin="round"/>
<path d="M122.37 15.8926C122.37 15.8926 119.495 13.4835 119.268 14.5152C119.04 15.5469 120.995 16.9243 120.995 16.9243" stroke="#4B5768" stroke-linecap="round" stroke-linejoin="round"/>
<path d="M118.467 15.6656C118.497 15.9669 118.468 16.2712 118.381 16.5611C118.293 16.851 118.149 17.1209 117.957 17.3553C117.765 17.5896 117.528 17.7838 117.261 17.9268C116.993 18.0697 116.7 18.1586 116.398 18.1882" stroke="#4B5768" stroke-linecap="round" stroke-linejoin="round"/>
<path d="M120.08 16.2382L117.779 15.0879L117.893 14.2883L118.58 13.9426" stroke="#4B5768" stroke-linecap="round" stroke-linejoin="round"/>
<path d="M120.302 12.6169C120.416 13.2527 120.487 13.8956 120.513 14.5411" stroke="#4B5768" stroke-linecap="round" stroke-linejoin="round"/>
<path d="M121.585 12.9366C121.711 13.7156 121.711 14.51 121.585 15.289" stroke="#4B5768" stroke-linecap="round" stroke-linejoin="round"/>
<path d="M122.763 13.4731C122.815 13.8311 122.773 14.1962 122.641 14.5332C122.51 14.8703 122.294 15.1679 122.014 15.3973" stroke="#4B5768" stroke-linecap="round" stroke-linejoin="round"/>
<path d="M138.401 15.4335C138.401 15.4335 142.393 14.4018 141.819 15.547C141.245 16.6922 139.404 17.043 139.404 17.043" stroke="#4B5768" stroke-linecap="round" stroke-linejoin="round"/>
<path d="M144.234 17.1563C143.732 16.7594 143.191 16.4137 142.62 16.1245C142.046 15.8924 141.933 15.0928 141.933 15.0928C141.933 15.0928 143.2 14.8658 143.2 14.2932C143.2 13.7206 142.279 13.2615 142.279 13.2615L142.16 13.8392" stroke="#4B5768" stroke-linecap="round" stroke-linejoin="round"/>
<path d="M140.66 12.3795C140.66 12.3795 140.205 14.6545 141.931 15.0672" stroke="#4B5768" stroke-linecap="round" stroke-linejoin="round"/>
<path d="M139.373 12.5083C139.373 12.5083 139.053 14.221 140.123 15.0876" stroke="#4B5768" stroke-linecap="round" stroke-linejoin="round"/>
<path d="M138.401 13.1533C138.401 13.1533 138.076 14.6493 138.824 15.1807" stroke="#4B5768" stroke-linecap="round" stroke-linejoin="round"/>
<path d="M133.881 79.8084C139.864 79.1171 146.416 76.8266 147.223 76.8266H148.029C148.029 76.8266 143.541 71.3172 143.541 70.5124C143.541 69.8728 143.691 58.1832 143.748 53.4889L146.333 50.7496C145.066 50.373 143.696 49.7179 143.189 48.5881C142.558 47.1901 142.863 44.7707 143.189 43.089L142.155 44.1207C140.891 44.7186 139.582 45.2171 138.24 45.6116C137.063 45.9768 135.924 46.4536 134.838 47.0354C134.129 46.9528 133.416 46.8754 133.033 46.8754C132.226 46.8754 126.595 47.9072 126.595 47.9072C125.293 47.1349 123.905 46.5185 122.458 46.0707C121.116 45.6762 119.808 45.1777 118.544 44.5798L118.378 44.4148C118.621 46.2962 118.676 48.197 118.544 50.0893C118.327 51.7865 116.961 52.5809 116.015 52.9317C117.489 54.4793 118.776 55.8257 118.776 55.8257C118.776 55.8257 120.731 65.4621 121.305 68.9081C121.879 72.3541 121.538 81.8718 121.538 81.8718C121.538 81.8718 127.898 80.4738 133.881 79.8084Z" fill="#00A868" stroke="#4B5768" stroke-linecap="round" stroke-linejoin="round"/>
<path d="M131.378 58.4772C130.907 57.971 130.475 57.4295 130.086 56.8574" stroke="#4B5768" stroke-linecap="round" stroke-linejoin="round"/>
<path d="M143.541 70.5125C141.319 67.8849 138.898 65.4308 136.301 63.1717C134.972 62.0419 133.902 61.0618 133.054 60.2261" stroke="#4B5768" stroke-linecap="round" stroke-linejoin="round"/>
<path d="M124.299 42.6763C124.299 42.6763 123.673 41.4228 122.313 38.9208C120.953 36.4189 122.101 32.0443 127.226 30.3729C132.35 28.7015 135.588 31.8328 136.317 33.9169C137.046 36.001 136.42 38.2966 136.001 39.5502C135.754 40.2898 135.614 41.0612 135.588 41.8406C135.318 41.5176 135.001 41.2375 134.646 41.0101C133.912 40.4942 132.661 34.959 130.985 34.5463C129.31 34.1336 125.763 35.0776 125.473 37.6569C125.183 40.2363 125.137 44.2394 124.299 42.6763Z" fill="#4B5768" stroke="#4B5768" stroke-linecap="round" stroke-linejoin="round"/>
<path d="M135.169 41.4228C135.169 41.4228 135.795 39.6534 136.633 40.4891C137.47 41.3248 137.046 43.0684 136.524 43.8216C136.002 44.5748 135.588 44.1363 135.273 43.3057C135.086 42.6956 135.051 42.0496 135.169 41.4228Z" fill="white"/>
<mask id="mask5_216_218" style="mask-type:luminance" maskUnits="userSpaceOnUse" x="135" y="40" width="3" height="5">
<path d="M135.169 41.4228C135.169 41.4228 135.795 39.6534 136.633 40.4891C137.47 41.3248 137.046 43.0684 136.524 43.8216C136.002 44.5748 135.588 44.1363 135.273 43.3057C135.086 42.6956 135.051 42.0496 135.169 41.4228Z" fill="white"/>
</mask>
<g mask="url(#mask5_216_218)">
<path d="M135.169 41.4228C135.169 41.4228 135.795 39.6534 136.633 40.4891C137.47 41.3248 137.046 43.0684 136.524 43.8216C136.002 44.5748 135.588 44.1363 135.273 43.3057C135.086 42.6956 135.051 42.0496 135.169 41.4228Z" fill="#E4E7EB" stroke="#4B5768" stroke-linecap="round" stroke-linejoin="round"/>
</g>
<path d="M135.169 41.4228C135.169 41.4228 135.795 39.6534 136.633 40.4891C137.47 41.3248 137.046 43.0684 136.524 43.8216C136.002 44.5748 135.588 44.1363 135.273 43.3057C135.086 42.6956 135.051 42.0496 135.169 41.4228Z" stroke="#4B5768" stroke-linecap="round" stroke-linejoin="round"/>
<path d="M124.776 42.4546C124.776 42.4546 123.695 40.907 123.116 41.9388C122.537 42.9705 123.416 44.5645 124.119 45.1217C124.822 45.6788 125.107 45.1732 125.184 44.286C125.197 43.6517 125.057 43.0236 124.776 42.4546Z" fill="white"/>
<mask id="mask6_216_218" style="mask-type:luminance" maskUnits="userSpaceOnUse" x="122" y="41" width="4" height="5">
<path d="M124.776 42.4546C124.776 42.4546 123.695 40.907 123.116 41.9388C122.537 42.9705 123.416 44.5645 124.119 45.1217C124.822 45.6788 125.107 45.1732 125.184 44.286C125.197 43.6517 125.057 43.0236 124.776 42.4546Z" fill="white"/>
</mask>
<g mask="url(#mask6_216_218)">
<path d="M124.776 42.4546C124.776 42.4546 123.695 40.907 123.116 41.9388C122.537 42.9705 123.416 44.5645 124.119 45.1217C124.822 45.6788 125.107 45.1732 125.184 44.286C125.197 43.6517 125.057 43.0236 124.776 42.4546Z" fill="#E4E7EB" stroke="#4B5768" stroke-linecap="round" stroke-linejoin="round"/>
</g>
<path d="M124.776 42.4546C124.776 42.4546 123.695 40.907 123.116 41.9388C122.537 42.9705 123.416 44.5645 124.119 45.1217C124.822 45.6788 125.107 45.1732 125.184 44.286C125.197 43.6517 125.057 43.0236 124.776 42.4546Z" stroke="#4B5768" stroke-linecap="round" stroke-linejoin="round"/>
<path d="M126.182 47.3655C126.135 48.8664 126.239 50.3682 126.492 51.8484C126.716 53.1886 127.031 54.5122 127.433 55.8102L131.198 52.2662L135.898 54.7682C135.898 54.7682 136.633 49.9758 135.169 47.8865C133.706 45.7973 128.897 45.5961 127.645 46.3389C127.102 46.5945 126.607 46.9418 126.182 47.3655Z" fill="white" stroke="#4B5768" stroke-linecap="round" stroke-linejoin="round"/>
<path d="M127.542 48.4128C127.542 48.4128 130.262 55.5008 131.725 54.9798C133.189 54.4588 133.608 48.2013 133.608 48.2013C133.608 48.2013 129.093 49.1402 127.542 48.4128Z" fill="white"/>
<mask id="mask7_216_218" style="mask-type:luminance" maskUnits="userSpaceOnUse" x="127" y="48" width="7" height="8">
<path d="M127.542 48.4128C127.542 48.4128 130.262 55.5008 131.725 54.9798C133.189 54.4588 133.608 48.2013 133.608 48.2013C133.608 48.2013 129.093 49.1402 127.542 48.4128Z" fill="white"/>
</mask>
<g mask="url(#mask7_216_218)">
<path d="M127.542 48.4128C127.542 48.4128 130.262 55.5008 131.725 54.9798C133.189 54.4588 133.608 48.2013 133.608 48.2013C133.608 48.2013 129.093 49.1402 127.542 48.4128Z" fill="#E4E7EB" stroke="#4B5768" stroke-linecap="round" stroke-linejoin="round"/>
<path opacity="0.25" d="M127.542 48.4128C127.542 48.4128 130.262 55.5008 131.725 54.9798C133.189 54.4588 133.608 48.2013 133.608 48.2013C133.608 48.2013 129.093 49.1402 127.542 48.4128Z" fill="#191D23"/>
</g>
<path d="M127.542 48.4128C127.542 48.4128 130.262 55.5008 131.725 54.9798C133.189 54.4588 133.608 48.2013 133.608 48.2013C133.608 48.2013 129.093 49.1402 127.542 48.4128Z" stroke="#4B5768" stroke-linecap="round" stroke-linejoin="round"/>
<path d="M123.984 39.6532C123.984 39.6532 124.501 44.2392 125.137 46.3233C125.773 48.4074 128.188 50.3006 131.425 49.7796C134.663 49.2586 135.816 44.5539 135.816 44.2392C135.816 43.9245 135.609 38.2964 134.352 36.2123C133.096 34.1282 130.696 32.1473 127.351 33.7104C124.005 35.2735 123.674 38.5079 123.984 39.6532Z" fill="white"/>
<mask id="mask8_216_218" style="mask-type:luminance" maskUnits="userSpaceOnUse" x="123" y="33" width="13" height="17">
<path d="M123.984 39.6532C123.984 39.6532 124.501 44.2392 125.137 46.3233C125.773 48.4074 128.188 50.3006 131.425 49.7796C134.663 49.2586 135.816 44.5539 135.816 44.2392C135.816 43.9245 135.609 38.2964 134.352 36.2123C133.096 34.1282 130.696 32.1473 127.351 33.7104C124.005 35.2735 123.674 38.5079 123.984 39.6532Z" fill="white"/>
</mask>
<g mask="url(#mask8_216_218)">
<path d="M123.984 39.6532C123.984 39.6532 124.501 44.2392 125.137 46.3233C125.773 48.4074 128.188 50.3006 131.425 49.7796C134.663 49.2586 135.816 44.5539 135.816 44.2392C135.816 43.9245 135.609 38.2964 134.352 36.2123C133.096 34.1282 130.696 32.1473 127.351 33.7104C124.005 35.2735 123.674 38.5079 123.984 39.6532Z" fill="#E4E7EB" stroke="#4B5768" stroke-linecap="round" stroke-linejoin="round"/>
<path opacity="0.25" d="M135.816 44.2393C135.816 43.9246 135.61 38.2965 134.353 36.2124C134.103 35.7953 133.816 35.4016 133.495 35.0363C133.8 36.3362 135.382 43.3365 134.131 45.725C132.75 48.3662 129.761 48.5984 127 47.221C124.931 46.1893 124.362 40.2001 124.192 37.1616C123.907 37.9606 123.843 38.8211 124.006 39.6533C124.006 39.6533 124.523 44.2393 125.159 46.3234C125.795 48.4075 128.21 50.3007 131.447 49.7797C134.684 49.2587 135.816 44.554 135.816 44.2393Z" fill="#191D23"/>
</g>
<path d="M123.984 39.6532C123.984 39.6532 124.501 44.2392 125.137 46.3233C125.773 48.4074 128.188 50.3006 131.425 49.7796C134.663 49.2586 135.816 44.5539 135.816 44.2392C135.816 43.9245 135.609 38.2964 134.352 36.2123C133.096 34.1282 130.696 32.1473 127.351 33.7104C124.005 35.2735 123.674 38.5079 123.984 39.6532Z" stroke="#4B5768" stroke-linecap="round" stroke-linejoin="round"/>
<path d="M126.957 42.3357C127.873 42.6033 128.844 42.6264 129.772 42.4029C130.701 42.1793 131.554 41.7168 132.247 41.0615C132.712 41.2163 132.536 44.0174 129.966 44.425C129.292 44.5289 128.603 44.3699 128.043 43.9809C127.482 43.5919 127.094 43.0029 126.957 42.3357Z" fill="white" stroke="#4B5768" stroke-linecap="round" stroke-linejoin="round"/>
<path d="M128.441 39.8544C128.441 39.8544 127.8 40.7469 128.12 41.0615C128.441 41.3762 129.713 41.4433 130.354 40.7469C130.995 40.0504 129.972 39.4108 129.972 39.4108" stroke="#4B5768" stroke-linecap="round" stroke-linejoin="round"/>
<path d="M125.991 40.2775C125.991 40.2775 126.306 39.2457 127.976 39.2457" stroke="#4B5768" stroke-linecap="round" stroke-linejoin="round"/>
<path d="M130.882 38.8177C131.187 38.4814 131.605 38.2677 132.057 38.2164C132.509 38.1652 132.965 38.2799 133.338 38.5392" stroke="#4B5768" stroke-linecap="round" stroke-linejoin="round"/>
<path d="M127.748 37.141C127.748 37.141 125.359 36.6664 125.064 38.8279" stroke="#4B5768" stroke-width="2" stroke-linecap="round" stroke-linejoin="round"/>
<path d="M130.283 36.8728C130.283 36.8728 131.968 35.5109 133.535 36.9708" stroke="#4B5768" stroke-width="2" stroke-linecap="round" stroke-linejoin="round"/>
<path d="M70.9236 39.0703C70.9236 39.0703 70.9236 36.6405 68.3019 34.866C65.6802 33.0914 59.3973 34.118 57.0548 37.11C54.7123 40.102 54.521 42.2686 51.8061 43.094C49.0913 43.9194 42.9015 44.8789 38.5992 49.3566C34.2968 53.8344 36.1636 63.0065 38.1338 63.7545C40.104 64.5025 37.6632 63.0993 37.9425 60.6593C37.9936 59.9862 38.2309 59.3406 38.6281 58.7941C39.0252 58.2476 39.5666 57.8218 40.1919 57.5641C40.1919 57.5641 37.6632 61.5827 43.005 66.8187C48.3467 72.0548 54.2521 70.8425 59.2215 69.8107C64.1909 68.779 70.2773 65.137 70.7478 60.8347C71.2184 56.5323 69.6205 54.1026 70.7478 52.1423C71.8751 50.182 75.9965 50.4554 76.5601 46.7206C77.1238 42.9857 75.6086 38.0437 70.9236 39.0703Z" fill="#4B5768" stroke="#4B5768" stroke-linecap="round" stroke-linejoin="round"/>
<path d="M88.9755 105.88C88.9755 105.88 91.592 102.579 92.5952 102.47C93.5984 102.362 95.0877 104.632 95.7392 106.365C96.3908 108.098 97.9059 111.658 97.9059 113.391C97.9059 116.419 96.6028 117.389 96.065 116.847C95.5272 116.306 94.1104 112.958 93.3554 112.308C92.8743 111.907 92.314 111.612 91.711 111.441C91.711 111.441 90.0459 107.237 88.9755 105.88Z" fill="white" stroke="#4B5768" stroke-linecap="round" stroke-linejoin="round"/>
<path d="M91.6286 103.296C91.6286 103.296 94.7985 106.458 95.9258 109.486C97.0531 112.514 97.3995 115.47 96.3808 116.708" stroke="#4B5768" stroke-linecap="round" stroke-linejoin="round"/>
<path d="M83.1428 129.285C83.1428 129.285 86.2817 129.502 87.3676 129.61C88.4535 129.718 88.4535 132.313 88.0192 134.15C87.5848 135.986 87.0418 137.178 87.5021 139.231C87.9623 141.284 86.7419 143.554 86.0903 144.529C85.4388 145.504 84.0219 145.287 83.9237 144.529C83.8254 143.771 84.2494 139.339 82.7343 136.853C81.2192 134.366 81.4053 131.029 83.1428 129.285Z" fill="white" stroke="#4B5768" stroke-linecap="round" stroke-linejoin="round"/>
<path d="M86.0845 129.481C86.7457 130.686 86.984 132.077 86.7615 133.433C86.4204 135.801 86.8752 139.53 86.8752 140.433C86.8752 141.336 85.6297 144.833 85.1801 144.947" stroke="#4B5768" stroke-linecap="round" stroke-linejoin="round"/>
<path d="M97.3532 18.054C96.7896 18.054 94.5401 18.6163 94.354 19.2715C94.1678 19.9266 93.8886 26.2821 93.8886 26.2821C93.8886 26.2821 89.9482 33.7621 88.6399 36.5685C87.3316 39.3748 83.8567 46.1068 83.8567 46.1068L75.1434 55.1758C75.1434 55.1758 73.8299 55.8309 71.5805 57.136C71.3685 57.2598 71.1461 57.3991 70.9238 57.5384L66.7869 58.4463L63.2395 57.7757C61.5567 56.4671 59.8047 55.2496 57.9909 54.1285C55.7415 52.8234 54.428 52.1683 54.428 52.1683L45.7147 43.0993C45.7147 43.0993 42.2449 36.3931 40.9315 33.5609C39.618 30.7288 35.6828 23.2746 35.6828 23.2746C35.6828 23.2746 35.4036 16.9191 35.2174 16.264C35.0313 15.6088 32.7767 15.0465 32.2182 15.0465C31.6597 15.0465 30.6255 18.0385 30.9978 18.6937C31.3701 19.3488 32.394 19.3437 32.394 19.3437C32.3463 20.0909 32.3463 20.8404 32.394 21.5877C32.4871 22.0571 33.8936 22.9909 33.8936 22.9909C33.8936 22.9909 35.8638 31.1261 37.1721 36.7335C38.4804 42.341 40.1713 46.0862 40.9211 46.7413C41.6709 47.3965 49.0759 54.8714 50.5755 57.3991C51.7857 59.2696 53.201 60.9999 54.7952 62.5578C54.7952 62.5578 53.9523 66.6847 53.9523 68.9133C53.9523 71.1418 56.2017 75.9239 56.9515 78.0751C57.7013 80.2262 58.6373 90.2289 58.6373 90.5126C58.6373 90.7963 59.1027 96.9609 59.1027 96.9609C59.1027 96.9609 54.0453 107.995 52.4526 115.847C50.86 123.698 51.6046 128.191 55.2606 129.873C58.9165 131.555 75.5054 133.892 75.9759 134.454C76.4465 135.016 76.8188 135.388 77.4755 135.388C78.1323 135.388 78.9752 135.016 79.544 135.388C80.1128 135.759 80.1025 136.043 80.7592 136.043C81.0729 136.085 81.3722 136.2 81.6328 136.38C81.8933 136.559 82.1078 136.797 82.2588 137.075C82.445 137.446 83.5723 136.698 83.9446 133.892C84.3169 131.085 83.7584 129.765 83.1948 129.687C82.6311 129.61 82.7294 128.656 81.7934 128.656C80.7868 128.72 79.7852 128.845 78.7942 129.032C78.3059 128.886 77.8031 128.792 77.2946 128.754C76.7309 128.754 76.0742 128.284 75.6967 128.191C75.3192 128.099 69.1397 125.571 69.1397 125.571L68.9019 125.447C75.1589 121.888 84.0325 115.589 84.0325 115.589C84.0325 115.589 86.5818 115.429 87.6988 114.475C88.4558 113.799 89.1483 113.055 89.7672 112.251L91.6805 111.457C91.6563 110.207 91.2682 108.992 90.5636 107.959C89.4518 106.53 88.9709 105.896 88.9709 105.896C88.9709 105.896 85.9458 107.325 84.9891 107.645C84.0325 107.964 82.6001 108.119 81.8037 108.914C81.0074 109.708 78.939 111.297 78.939 111.297L71.9321 114.949C71.9321 114.949 80.8523 103.512 81.964 98.7458C82.9207 94.6601 81.4469 90.1463 79.0062 86.8499C77.1601 84.3738 74.5694 82.4857 72.6044 80.0869C71.6632 78.9469 70.9445 78.1008 71.0117 77.6108C71.1203 76.8524 72.0097 73.035 72.8164 69.7851L75.3295 64.9772C75.9501 64.3324 78.7218 60.8503 78.9803 60.4066C80.4799 57.8789 87.8849 50.3988 88.6347 49.7437C89.3846 49.0885 91.0703 45.3537 92.3838 39.741C93.6972 34.1284 95.6623 25.9984 95.6623 25.9984C95.6623 25.9984 97.0688 25.0646 97.1619 24.5952C97.2096 23.8479 97.2096 23.0984 97.1619 22.3512C97.1619 22.3512 98.1961 22.3512 98.5684 21.696C98.9407 21.0409 97.9168 18.054 97.3532 18.054Z" fill="white" stroke="#4B5768" stroke-linecap="round" stroke-linejoin="round"/>
<path d="M88.9755 105.88C88.9755 105.88 85.9504 107.309 84.9937 107.629C84.0371 107.949 82.6047 108.103 81.8084 108.898C81.012 109.692 78.9436 111.281 78.9436 111.281L71.9368 114.934C71.9368 114.934 80.8569 103.497 81.9687 98.7302C82.9253 94.6445 81.4515 90.1307 79.0108 86.8343C78.0805 85.6427 77.0531 84.5298 75.9392 83.507C73.982 85.2105 71.8561 86.7108 69.5942 87.9847C66.287 89.9191 62.4421 90.7369 58.6315 90.3164C58.6315 90.4144 58.6315 90.4763 58.6315 90.4969C58.6315 90.7755 59.0969 96.9453 59.0969 96.9453C59.0969 96.9453 54.0396 107.98 52.4469 115.831C50.8542 123.683 51.5989 128.176 55.2548 129.858C58.9108 131.539 75.4996 133.876 75.9702 134.438C76.4408 135.001 76.8131 135.372 77.4698 135.372C78.1265 135.372 78.9694 135.001 79.5382 135.372C80.1071 135.744 80.0967 136.027 80.7535 136.027C81.0672 136.069 81.3665 136.185 81.627 136.364C81.8876 136.543 82.1021 136.781 82.2531 137.059C82.4392 137.43 83.5665 136.682 83.9388 133.876C84.3112 131.07 83.7527 129.749 83.189 129.672C82.6254 129.594 82.7236 128.64 81.7877 128.64C80.7811 128.704 79.7795 128.83 78.7884 129.017C78.3001 128.87 77.7973 128.777 77.2888 128.738C76.7252 128.738 76.0684 128.269 75.691 128.176C75.3135 128.083 69.134 125.555 69.134 125.555L68.8961 125.431C75.1532 121.872 84.0268 115.573 84.0268 115.573C84.0268 115.573 86.5761 115.413 87.6931 114.459C88.4501 113.783 89.1426 113.039 89.7615 112.236L91.6748 111.441C91.6506 110.192 91.2625 108.977 90.5578 107.944C89.4564 106.515 88.9755 105.88 88.9755 105.88Z" fill="#4B5768" stroke="#4B5768" stroke-linecap="round" stroke-linejoin="round"/>
<path d="M65.0436 96.3058L66.8845 97.1724C66.8845 97.1724 59.19 115.661 58.0937 120.959C56.9974 126.257 58.3109 128.852 60.369 128.852C62.4271 128.852 68.2807 125.824 68.2807 125.824" stroke="white" stroke-linecap="round" stroke-linejoin="round"/>
<path d="M71.9367 114.934C71.9367 114.934 67.3189 121.743 66.0055 123.337" stroke="white" stroke-linecap="round" stroke-linejoin="round"/>
<path d="M34.374 17.569C34.374 17.569 32.4969 14.9484 32.2176 14.3861C31.9384 13.8238 31.3747 15.4178 31.8401 16.3516C32.138 16.9321 32.5177 17.4671 32.9674 17.9404C32.9674 17.9404 32.2176 20.1844 33.3397 21.1182" fill="white"/>
<path d="M34.374 17.569C34.374 17.569 32.4969 14.9484 32.2176 14.3861C31.9384 13.8238 31.3747 15.4178 31.8401 16.3516C32.138 16.9321 32.5177 17.4671 32.9674 17.9404C32.9674 17.9404 32.2176 20.1844 33.3397 21.1182" stroke="#4B5768" stroke-linecap="round" stroke-linejoin="round"/>
<path d="M94.6638 21.0719C94.6638 21.0719 96.5357 18.4565 96.8201 17.8942C97.1045 17.3319 97.663 18.9259 97.1924 19.8596C96.8953 20.4393 96.5175 20.9742 96.0703 21.4485C96.0703 21.4485 96.8201 23.6925 95.6928 24.6262" fill="white"/>
<path d="M94.6638 21.0719C94.6638 21.0719 96.5357 18.4565 96.8201 17.8942C97.1045 17.3319 97.663 18.9259 97.1924 19.8596C96.8953 20.4393 96.5175 20.9742 96.0703 21.4485C96.0703 21.4485 96.8201 23.6925 95.6928 24.6262" stroke="#4B5768" stroke-linecap="round" stroke-linejoin="round"/>
<path d="M54.8053 62.5424C54.8053 62.5424 53.9624 66.6693 53.9624 68.8979C53.9624 71.1264 56.2119 75.9085 56.9617 78.0596C57.7115 80.2108 58.6475 90.2134 58.6475 90.4972C58.6475 90.5746 58.6836 91.1265 58.7405 91.8797C62.0552 92.8031 68.8914 93.1178 77.041 84.5957C75.5621 83.0945 73.9384 81.6965 72.6094 80.0715C71.6682 78.9314 70.9495 78.0854 71.0167 77.5954C71.1253 76.837 72.0147 73.0196 72.8214 69.7697L75.3345 64.9618C75.9551 64.317 78.7268 60.8349 78.9853 60.3912C80.485 57.8635 87.8899 50.3834 88.6398 49.7283C89.3896 49.0731 91.0753 45.3382 92.3888 39.7256C92.8697 37.6621 93.423 35.2427 93.9763 33.0193C92.9189 32.8001 91.8961 32.4391 90.9357 31.9463C90.0308 33.7106 89.1413 35.4749 88.6398 36.5479C87.3263 39.3542 83.8565 46.0862 83.8565 46.0862L75.1432 55.1552C75.1432 55.1552 73.8298 55.8103 71.5803 57.1155C71.3683 57.2393 71.146 57.3786 70.9236 57.5178L66.7867 58.4258L63.2394 57.7758C61.5566 56.4671 59.8045 55.2497 57.9907 54.1286C55.7413 52.8235 54.4278 52.1683 54.4278 52.1683L45.7146 43.0994C45.7146 43.0994 42.2448 36.3931 40.9313 33.561C40.3263 32.2713 39.168 29.9861 38.0924 27.8865C37.1865 28.2663 36.2613 28.5986 35.3207 28.8821C35.9257 31.3892 36.6134 34.2935 37.1823 36.7233C38.4957 42.3359 40.1815 46.0759 40.9313 46.7311C41.6811 47.3862 49.0861 54.8611 50.5857 57.3889C51.7962 59.2576 53.2115 60.9861 54.8053 62.5424Z" fill="#00A868"/>
<mask id="mask9_216_218" style="mask-type:luminance" maskUnits="userSpaceOnUse" x="35" y="27" width="59" height="66">
<path d="M54.8053 62.5424C54.8053 62.5424 53.9624 66.6693 53.9624 68.8979C53.9624 71.1264 56.2119 75.9085 56.9617 78.0596C57.7115 80.2108 58.6475 90.2134 58.6475 90.4972C58.6475 90.5746 58.6836 91.1265 58.7405 91.8797C62.0552 92.8031 68.8914 93.1178 77.041 84.5957C75.5621 83.0945 73.9384 81.6965 72.6094 80.0715C71.6682 78.9314 70.9495 78.0854 71.0167 77.5954C71.1253 76.837 72.0147 73.0196 72.8214 69.7697L75.3345 64.9618C75.9551 64.317 78.7268 60.8349 78.9853 60.3912C80.485 57.8635 87.8899 50.3834 88.6398 49.7283C89.3896 49.0731 91.0753 45.3382 92.3888 39.7256C92.8697 37.6621 93.423 35.2427 93.9763 33.0193C92.9189 32.8001 91.8961 32.4391 90.9357 31.9463C90.0308 33.7106 89.1413 35.4749 88.6398 36.5479C87.3263 39.3542 83.8565 46.0862 83.8565 46.0862L75.1432 55.1552C75.1432 55.1552 73.8298 55.8103 71.5803 57.1155C71.3683 57.2393 71.146 57.3786 70.9236 57.5178L66.7867 58.4258L63.2394 57.7758C61.5566 56.4671 59.8045 55.2497 57.9907 54.1286C55.7413 52.8235 54.4278 52.1683 54.4278 52.1683L45.7146 43.0994C45.7146 43.0994 42.2448 36.3931 40.9313 33.561C40.3263 32.2713 39.168 29.9861 38.0924 27.8865C37.1865 28.2663 36.2613 28.5986 35.3207 28.8821C35.9257 31.3892 36.6134 34.2935 37.1823 36.7233C38.4957 42.3359 40.1815 46.0759 40.9313 46.7311C41.6811 47.3862 49.0861 54.8611 50.5857 57.3889C51.7962 59.2576 53.2115 60.9861 54.8053 62.5424Z" fill="white"/>
</mask>
<g mask="url(#mask9_216_218)">
<path d="M55.0643 52.4882C54.6506 52.2716 54.4283 52.1632 54.4283 52.1632L53.9111 51.6216L49.6864 56.1302C49.9887 56.5114 50.2718 56.9074 50.5344 57.3167L55.0643 52.4882Z" fill="#4B5768"/>
<path d="M51.1082 48.7068L50.1102 47.675L45.4562 51.3429C45.782 51.6885 46.113 52.0393 46.4336 52.3746L51.1082 48.7068Z" fill="#4B5768"/>
<path d="M58.6373 54.5157L57.9909 54.1236L57.3859 53.7728L52.2148 59.6847C52.5354 60.0819 52.8508 60.4533 53.1508 60.7886L58.6373 54.5157Z" fill="#4B5768"/>
<path d="M46.9552 44.3632L41.5773 47.3345L42.6115 48.3663L47.9584 45.4052L46.9552 44.3632Z" fill="#4B5768"/>
<path d="M60.1522 55.5164L57.9132 58.008C57.8109 58.0399 57.7171 58.0946 57.6391 58.1679C57.5407 58.2638 57.4754 58.3885 57.4529 58.5239L54.2986 62.0318C54.6088 62.3516 54.8157 62.5476 54.8157 62.5476C54.8157 62.5476 54.6605 63.3008 54.4847 64.3428L55.0587 63.4762C56.4601 64.0746 60.3591 65.1527 70.2669 65.1527C71.2804 65.1527 72.3577 65.1407 73.4988 65.1166C73.6028 65.1142 73.7051 65.0896 73.7987 65.0444C74.151 65.326 74.5631 65.5237 75.0036 65.6222L75.3449 64.967C75.469 64.8381 75.681 64.5904 75.9396 64.2809C75.7674 64.292 75.5947 64.292 75.4225 64.2809C73.6384 64.0643 72.5473 60.2726 72.0768 56.8628L71.5597 57.1465C71.3476 57.2703 71.1253 57.4096 70.9029 57.5489L70.7168 57.5901C70.7943 58.106 70.8822 58.6219 70.996 59.1377C64.1443 60.8968 60.5814 59.4679 59.2525 58.6683L61.3209 56.3779C60.9641 56.0838 60.5659 55.8001 60.1522 55.5164ZM64.9717 61.3869C67.1257 61.357 69.2676 61.059 71.3476 60.4996C71.6341 61.6191 72.0707 62.695 72.6456 63.698C61.9725 63.8682 57.5615 62.8417 55.9895 62.2948L58.301 59.7155C59.2835 60.3552 61.383 61.3869 64.9717 61.3869Z" fill="#4B5768"/>
<path d="M41.94 35.6399L37.3843 37.5641C37.5084 38.049 37.6273 38.5133 37.7514 38.9672L42.5812 36.9038L41.94 35.6399Z" fill="#4B5768"/>
<path d="M39.8359 31.3119L36.2162 32.648C36.3248 33.1174 36.4385 33.5817 36.5471 34.046L40.472 32.6016L39.8359 31.3119Z" fill="#4B5768"/>
<path d="M44.7482 41.2061C44.5465 40.8192 44.3293 40.3858 44.0966 39.9319L39.0083 42.9084C39.1892 43.3985 39.3651 43.8473 39.5254 44.2497L44.7482 41.2061Z" fill="#4B5768"/>
<path d="M86.0856 41.7117C85.8581 42.1708 85.6305 42.6196 85.4134 43.0426C86.8251 44.3168 88.4488 45.7148 90.1346 46.9993C90.3104 46.5763 90.4862 46.112 90.6517 45.6013C89.0331 44.3323 87.4508 42.9549 86.0856 41.7117Z" fill="#4B5768"/>
<path d="M71.2861 76.2695C71.3791 75.8413 71.4929 75.3306 71.6222 74.7735C64.0776 75.8052 58.529 74.9024 55.385 74.0513C55.6073 74.6239 55.8297 75.1862 56.0469 75.7175C58.9561 76.3895 61.9343 76.7185 64.9204 76.6977C67.0494 76.6941 69.1759 76.5511 71.2861 76.2695Z" fill="#4B5768"/>
<path d="M87.8283 38.2244C89.1954 39.219 90.6124 40.1436 92.0737 40.9946C92.1823 40.5819 92.2858 40.1589 92.3892 39.7256C92.3892 39.6637 92.3892 39.5966 92.4305 39.5347C91.0644 38.7276 89.7405 37.8512 88.4643 36.9089C88.2833 37.301 88.0661 37.7446 87.8283 38.2244Z" fill="#4B5768"/>
<path d="M53.9679 68.6657C53.9679 68.7431 53.9679 68.8256 53.9679 68.8978C53.9781 69.3025 54.0283 69.7051 54.1179 70.0998C57.174 69.8728 63.4982 69.7284 72.4959 71.1315C72.6045 70.6776 72.7183 70.2236 72.8268 69.78V69.7335C63.5551 68.2633 57.1067 68.4181 53.9679 68.6657Z" fill="#4B5768"/>
<path d="M75.2621 82.852C74.9053 82.5116 74.5589 82.1659 74.2279 81.8203C68.8345 85.4314 62.4172 86.9068 58.3786 87.4948C58.4354 88.0107 58.482 88.5266 58.5233 88.9393C62.743 88.346 69.5274 86.8036 75.2621 82.852Z" fill="#4B5768"/>
<path d="M57.6189 81.3869C57.6861 81.8512 57.7534 82.3412 57.8206 82.8416C58.3377 82.8416 58.9375 82.8416 59.5581 82.8416C64.2304 82.8888 68.8832 82.2331 73.3597 80.8968C73.1063 80.6183 72.8426 80.3397 72.6099 80.0456L72.3307 79.7103C66.839 81.3508 61.0939 81.5055 57.6189 81.3869Z" fill="#4B5768"/>
<path d="M82.7964 47.1849C84.0323 48.7325 85.3819 50.2234 86.7264 51.6162L87.7606 50.5845C86.4162 49.1762 85.0458 47.6544 83.8151 46.1326L82.7964 47.1849Z" fill="#4B5768"/>
<path d="M83.2 55.3151L84.1825 54.2834C82.6129 53.0852 81.1866 51.7108 79.9319 50.1874L78.9287 51.2191C80.1952 52.7388 81.6279 54.1126 83.2 55.3151Z" fill="#4B5768"/>
<path d="M78.9856 60.3912C79.1547 60.1095 79.3394 59.8374 79.5389 59.5762C78.7374 58.0698 77.5687 55.831 76.5345 53.7004L75.5003 54.8044C76.6431 57.1413 77.9048 59.5297 78.6443 60.8968C78.8046 60.6492 78.9339 60.4686 78.9856 60.3912Z" fill="#4B5768"/>
<path opacity="0.25" d="M93.842 33.0142C91.6288 37.884 87.3989 47.1903 86.5612 49.0422C85.4184 51.5803 76.3948 60.7059 74.8693 61.5932C73.3439 62.4805 72.4544 64.6369 71.8184 66.917C71.2134 69.0888 69.4604 70.8015 69.2949 73.1487C68.4262 72.4883 66.7094 71.9364 64.3203 71.7352C59.7439 71.3534 55.426 72.4987 55.426 68.315C55.426 64.1313 58.0943 60.0611 58.2236 58.8024C58.3529 57.5437 55.8087 59.8341 54.5366 58.9314C53.2645 58.0286 44.6236 48.1549 42.0795 45.003C40.4609 42.9808 37.5858 34.6134 35.7139 28.8099L35.3209 28.9337C35.9259 31.4409 36.6136 34.3452 37.1824 36.7749C38.4959 42.3875 40.1817 46.1276 40.9315 46.7776C41.6813 47.4275 49.0863 54.9128 50.5859 57.4405C51.7961 59.311 53.2114 61.0412 54.8055 62.5992C54.8055 62.5992 53.9626 66.7261 53.9626 68.9547C53.9626 71.1832 56.212 75.9653 56.9619 78.1164C57.7117 80.2676 58.6476 90.2702 58.6476 90.554C58.6476 90.6314 58.6838 91.1833 58.7407 91.9365C59.1984 92.0622 59.6628 92.1621 60.1317 92.2357C60.0438 88.3151 59.3923 80.1438 60.5092 78.3589C61.7244 76.4192 67.5884 76.3315 69.3001 75.2224C69.3727 77.2921 70.1147 79.2827 71.4151 80.897C72.3407 82.1093 74.4505 83.7652 76.4724 85.2148L77.0205 84.6576C75.5416 83.1565 73.9179 81.7585 72.5889 80.1335C71.6477 78.9934 70.929 78.1474 70.9962 77.6573C71.1048 76.899 71.9942 73.0816 72.8009 69.8316L75.314 65.0238C75.9346 64.3789 78.7063 60.8968 78.9648 60.4532C80.4644 57.9254 87.8694 50.4454 88.6192 49.7902C89.3691 49.1351 91.0548 45.4002 92.3683 39.7876C92.8492 37.7241 93.4025 35.3047 93.9558 33.0813L93.842 33.0142Z" fill="#191D23"/>
</g>
<path d="M54.8053 62.5424C54.8053 62.5424 53.9624 66.6693 53.9624 68.8978C53.9624 71.1264 56.2119 75.9085 56.9617 78.0596C57.7115 80.2108 58.6475 90.2134 58.6475 90.4972C58.6475 90.5745 58.6836 91.1265 58.7405 91.8797C62.0552 92.8031 68.8914 93.1178 77.041 84.5957C75.5621 83.0945 73.9384 81.6965 72.6094 80.0715C71.6682 78.9315 70.9495 78.0854 71.0167 77.5954C71.1253 76.837 72.0147 73.0196 72.8214 69.7697L75.3345 64.9618C75.9551 64.317 78.7268 60.8349 78.9853 60.3912C80.485 57.8635 87.8899 50.3834 88.6398 49.7283C89.3896 49.0731 91.0753 45.3382 92.3888 39.7256C92.8697 37.6621 93.423 35.2427 93.9763 33.0193C92.9189 32.8001 91.8961 32.4391 90.9357 31.9463C90.0308 33.7106 89.1414 35.4749 88.6398 36.5479C87.3263 39.3542 83.8565 46.0862 83.8565 46.0862L75.1432 55.1552C75.1432 55.1552 73.8298 55.8103 71.5803 57.1155C71.3683 57.2393 71.146 57.3786 70.9236 57.5178L66.7867 58.4258L63.2394 57.7758C61.5566 56.4671 59.8045 55.2497 57.9907 54.1286C55.7413 52.8235 54.4278 52.1683 54.4278 52.1683L45.7146 43.0994C45.7146 43.0994 42.2448 36.3931 40.9313 33.561C40.3263 32.2713 39.168 29.9861 38.0924 27.8865C37.1865 28.2663 36.2613 28.5986 35.3207 28.8821C35.9257 31.3892 36.6134 34.2935 37.1823 36.7233C38.4957 42.3359 40.1815 46.0759 40.9313 46.7311C41.6811 47.3862 49.0861 54.8611 50.5857 57.3889C51.7962 59.2576 53.2115 60.9861 54.8053 62.5424Z" stroke="#4B5768" stroke-linecap="round" stroke-linejoin="round"/>
<path d="M62.3036 50.4761C62.3036 50.4761 62.3966 56.3673 61.9261 57.7704C61.4555 59.1736 58.8234 61.8974 59.9611 64.1311C61.0987 66.3648 65.2097 63.8473 66.6835 61.139C68.1572 58.4307 67.4385 57.5847 67.4385 57.5847V53.4578L62.3036 50.4761Z" fill="white"/>
<mask id="mask10_216_218" style="mask-type:luminance" maskUnits="userSpaceOnUse" x="59" y="50" width="9" height="15">
<path d="M62.3036 50.4761C62.3036 50.4761 62.3966 56.3673 61.9261 57.7704C61.4555 59.1736 58.8234 61.8974 59.9611 64.1311C61.0987 66.3648 65.2097 63.8473 66.6835 61.139C68.1572 58.4307 67.4385 57.5847 67.4385 57.5847V53.4578L62.3036 50.4761Z" fill="white"/>
</mask>
<g mask="url(#mask10_216_218)">
<path d="M67.4594 53.4682L62.2883 50.4762C62.2883 50.4762 62.3814 56.3674 61.9108 57.7705C61.8423 57.9647 61.7575 58.1528 61.6574 58.3328C62.6393 58.6496 63.6926 58.6729 64.6877 58.3999C65.7338 57.9603 66.6736 57.3024 67.4439 56.4706L67.4594 53.4682Z" fill="#00A868"/>
<path opacity="0.5" d="M67.4594 53.4682L62.2883 50.4762C62.2883 50.4762 62.3814 56.3674 61.9108 57.7705C61.8423 57.9647 61.7575 58.1528 61.6574 58.3328C62.6393 58.6496 63.6926 58.6729 64.6877 58.3999C65.7338 57.9603 66.6736 57.3024 67.4439 56.4706L67.4594 53.4682Z" fill="white"/>
</g>
<path d="M62.3036 50.4761C62.3036 50.4761 62.3966 56.3673 61.9261 57.7704C61.4555 59.1736 58.8234 61.8974 59.9611 64.1311C61.0987 66.3648 65.2097 63.8473 66.6835 61.139C68.1572 58.4307 67.4385 57.5847 67.4385 57.5847V53.4578L62.3036 50.4761Z" stroke="#4B5768" stroke-linecap="round" stroke-linejoin="round"/>
<path d="M61.2691 46.5504C61.2691 46.5504 59.4902 44.8687 59.0196 46.0862C58.5491 47.3036 59.7695 49.0782 60.4262 49.2639L61.0829 49.4496C61.374 50.7823 62.0228 52.0109 62.96 53.0039C64.4596 54.4999 66.1454 55.2479 68.0173 54.3142C69.8893 53.3805 71.3941 51.0385 71.8595 48.2373C72.1426 46.8532 72.2383 45.4374 72.1439 44.0279C72.1439 43.5584 71.301 40.195 68.8602 39.3541C66.4195 38.5132 66.7039 39.5398 64.8319 41.691C63.536 43.2289 62.3456 44.8524 61.2691 46.5504Z" fill="white"/>
<mask id="mask11_216_218" style="mask-type:luminance" maskUnits="userSpaceOnUse" x="58" y="39" width="15" height="16">
<path d="M61.2691 46.5504C61.2691 46.5504 59.4902 44.8687 59.0196 46.0862C58.5491 47.3036 59.7695 49.0782 60.4262 49.2639L61.0829 49.4496C61.374 50.7823 62.0228 52.0109 62.96 53.0039C64.4596 54.4999 66.1454 55.2479 68.0173 54.3142C69.8893 53.3805 71.3941 51.0385 71.8595 48.2373C72.1426 46.8532 72.2383 45.4374 72.1439 44.0279C72.1439 43.5584 71.301 40.195 68.8602 39.3541C66.4195 38.5132 66.7039 39.5398 64.8319 41.691C63.536 43.2289 62.3456 44.8524 61.2691 46.5504Z" fill="white"/>
</mask>
<g mask="url(#mask11_216_218)">
<path d="M71.6316 42.2998C71.7867 43.8474 72.0453 47.8608 70.9283 49.785C69.5321 52.189 68.1308 54.4742 65.3384 53.3342C62.546 52.1941 61.6514 49.2743 61.6514 49.2743C61.6514 49.2743 60.8912 49.4033 59.7433 48.387C59.6257 48.2772 59.489 48.1898 59.3399 48.1291C59.5671 48.6174 59.9486 49.0179 60.4259 49.2692L61.0826 49.4549C61.3737 50.7875 62.0225 52.0161 62.9597 53.0092C64.4593 54.5052 66.1451 55.2532 68.017 54.3195C69.8889 53.3858 71.3937 51.0437 71.8591 48.2426C72.1423 46.8584 72.238 45.4426 72.1435 44.0331C72.0604 43.4331 71.8879 42.8489 71.6316 42.2998Z" fill="#00A868"/>
<path opacity="0.5" d="M71.6316 42.2998C71.7867 43.8474 72.0453 47.8608 70.9283 49.785C69.5321 52.189 68.1308 54.4742 65.3384 53.3342C62.546 52.1941 61.6514 49.2743 61.6514 49.2743C61.6514 49.2743 60.8912 49.4033 59.7433 48.387C59.6257 48.2772 59.489 48.1898 59.3399 48.1291C59.5671 48.6174 59.9486 49.0179 60.4259 49.2692L61.0826 49.4549C61.3737 50.7875 62.0225 52.0161 62.9597 53.0092C64.4593 54.5052 66.1451 55.2532 68.017 54.3195C69.8889 53.3858 71.3937 51.0437 71.8591 48.2426C72.1423 46.8584 72.238 45.4426 72.1435 44.0331C72.0604 43.4331 71.8879 42.8489 71.6316 42.2998Z" fill="white"/>
</g>
<path d="M61.2691 46.5504C61.2691 46.5504 59.4902 44.8687 59.0196 46.0862C58.5491 47.3036 59.7695 49.0782 60.4262 49.2639L61.0829 49.4496C61.374 50.7823 62.0228 52.0109 62.96 53.0039C64.4596 54.4999 66.1454 55.2479 68.0173 54.3142C69.8893 53.3805 71.3941 51.0385 71.8595 48.2373C72.1426 46.8532 72.2383 45.4374 72.1439 44.0279C72.1439 43.5584 71.301 40.195 68.8602 39.3541C66.4195 38.5132 66.7039 39.5398 64.8319 41.691C63.536 43.2289 62.3456 44.8524 61.2691 46.5504Z" stroke="#4B5768" stroke-linecap="round" stroke-linejoin="round"/>
<path d="M69.0504 44.683C69.0504 44.683 68.3941 45.8953 68.6732 46.179C68.9523 46.4627 69.8928 47.0199 69.4225 47.2984C68.9789 47.4897 68.5001 47.5864 68.0169 47.5822" stroke="#4B5768" stroke-linecap="round" stroke-linejoin="round"/>
<path d="M65.3026 47.9741C65.3026 47.9741 66.4247 49.2844 69.9876 48.815C69.9876 48.815 67.8313 50.9661 66.8849 50.9661C65.9386 50.9661 65.3026 47.9741 65.3026 47.9741Z" stroke="#4B5768" stroke-linecap="round" stroke-linejoin="round"/>
<path d="M64.6457 44.9616C64.6457 44.9616 65.9591 44.4974 66.7141 45.2454" stroke="#4B5768" stroke-linecap="round" stroke-linejoin="round"/>
<path d="M69.3307 45.7096C69.3307 45.7096 70.8304 45.2453 71.1096 46.2719" stroke="#4B5768" stroke-linecap="round" stroke-linejoin="round"/>
<path d="M64.5532 43.3727C64.8472 43.0338 65.2418 42.7971 65.6797 42.6969C66.1176 42.5968 66.5761 42.6383 66.9888 42.8156" stroke="#4B5768" stroke-linecap="round" stroke-linejoin="round"/>
<path d="M69.5171 43.8474C69.5171 43.8474 70.7375 42.7228 71.5855 44.7811" stroke="#4B5768" stroke-linecap="round" stroke-linejoin="round"/>
</svg>
