<svg width="26" height="24" viewBox="0 0 26 24" fill="none" xmlns="http://www.w3.org/2000/svg">
<path d="M14.5449 0H2.18538C1.25449 0 0.5 0.741246 0.5 1.6552V22.3448C0.5 23.2588 1.25449 24 2.18538 24H14.5449C15.4756 24 16.2303 23.2588 16.2303 22.3448V1.6552C16.2304 0.741246 15.4756 0 14.5449 0ZM5.55617 21.5173C5.55617 21.8218 5.30449 22.069 4.99436 22.069H2.74718C2.43681 22.069 2.18538 21.8218 2.18538 21.5173V19.8621C2.18538 19.5575 2.43677 19.3104 2.74718 19.3104H4.99436C5.30449 19.3104 5.55617 19.5575 5.55617 19.8621V21.5173ZM5.55617 17.6552C5.55617 17.9598 5.30449 18.2069 4.99436 18.2069H2.74718C2.43681 18.2069 2.18538 17.9598 2.18538 17.6552V16C2.18538 15.6955 2.43677 15.4483 2.74718 15.4483H4.99436C5.30449 15.4483 5.55617 15.6955 5.55617 16V17.6552ZM5.55617 13.7931C5.55617 14.0977 5.30449 14.3449 4.99436 14.3449H2.74718C2.43681 14.3449 2.18538 14.0977 2.18538 13.7931V12.138C2.18538 11.8334 2.43677 11.5863 2.74718 11.5863H4.99436C5.30449 11.5863 5.55617 11.8334 5.55617 12.138V13.7931ZM5.55617 9.93106C5.55617 10.2356 5.30449 10.4828 4.99436 10.4828H2.74718C2.43681 10.4828 2.18538 10.2356 2.18538 9.93106V8.2759C2.18538 7.97133 2.43677 7.72417 2.74718 7.72417H4.99436C5.30449 7.72417 5.55617 7.97133 5.55617 8.2759V9.93106ZM10.0506 21.5173C10.0506 21.8218 9.7989 22.069 9.48877 22.069H7.24159C6.93121 22.069 6.67978 21.8218 6.67978 21.5173V19.8621C6.67978 19.5575 6.93117 19.3104 7.24159 19.3104H9.48877C9.7989 19.3104 10.0506 19.5575 10.0506 19.8621V21.5173ZM10.0506 17.6552C10.0506 17.9598 9.7989 18.2069 9.48877 18.2069H7.24159C6.93121 18.2069 6.67978 17.9598 6.67978 17.6552V16C6.67978 15.6955 6.93117 15.4483 7.24159 15.4483H9.48877C9.7989 15.4483 10.0506 15.6955 10.0506 16V17.6552ZM10.0506 13.7931C10.0506 14.0977 9.7989 14.3449 9.48877 14.3449H7.24159C6.93121 14.3449 6.67978 14.0977 6.67978 13.7931V12.138C6.67978 11.8334 6.93117 11.5863 7.24159 11.5863H9.48877C9.7989 11.5863 10.0506 11.8334 10.0506 12.138V13.7931ZM10.0506 9.93106C10.0506 10.2356 9.7989 10.4828 9.48877 10.4828H7.24159C6.93121 10.4828 6.67978 10.2356 6.67978 9.93106V8.2759C6.67978 7.97133 6.93117 7.72417 7.24159 7.72417H9.48877C9.7989 7.72417 10.0506 7.97133 10.0506 8.2759V9.93106ZM14.5449 21.5173C14.5449 21.8218 14.2933 22.069 13.9831 22.069H11.736C11.4256 22.069 11.1741 21.8218 11.1741 21.5173V16C11.1741 15.6955 11.4255 15.4483 11.736 15.4483H13.9831C14.2933 15.4483 14.5449 15.6955 14.5449 16V21.5173ZM14.5449 13.7931C14.5449 14.0977 14.2933 14.3449 13.9831 14.3449H11.736C11.4256 14.3449 11.1741 14.0977 11.1741 13.7931V12.138C11.1741 11.8334 11.4255 11.5863 11.736 11.5863H13.9831C14.2933 11.5863 14.5449 11.8334 14.5449 12.138V13.7931ZM14.5449 9.93106C14.5449 10.2356 14.2933 10.4828 13.9831 10.4828H11.736C11.4256 10.4828 11.1741 10.2356 11.1741 9.93106V8.2759C11.1741 7.97133 11.4255 7.72417 11.736 7.72417H13.9831C14.2933 7.72417 14.5449 7.97133 14.5449 8.2759V9.93106ZM14.5449 5.51724C14.5449 5.82181 14.2933 6.06897 13.9831 6.06897H2.74718C2.43681 6.06897 2.18538 5.82181 2.18538 5.51724V2.48277C2.18538 2.1782 2.43677 1.93104 2.74718 1.93104H13.9831C14.2933 1.93104 14.5449 2.1782 14.5449 2.48277V5.51724Z" fill="#00A868"/>
<path d="M17.3539 12.4138H24.9382C25.2483 12.4138 25.5 12.1667 25.5 11.8621V6.06897H17.3539V12.4138ZM22.691 7.15534C22.691 7.01245 22.809 6.89659 22.9542 6.89659H24.3938C24.5393 6.89659 24.6573 7.01245 24.6573 7.15534V8.56915C24.6573 8.71177 24.5393 8.82763 24.3938 8.82763H22.9542C22.809 8.82763 22.691 8.71177 22.691 8.56915V7.15534Z" fill="#00A868"/>
<path d="M24.9382 2.48279H17.3539V4.41383H25.5V3.03452C25.5 2.72995 25.2483 2.48279 24.9382 2.48279Z" fill="#00A868"/>
</svg>
